<svg width="30" height="30" viewBox="0 0 30 30" fill="none" xmlns="http://www.w3.org/2000/svg">
<path d="M19.0594 20.1375L21.1594 18.0375C21.4423 17.7582 21.8001 17.567 22.1895 17.4871C22.5789 17.4072 22.9832 17.4421 23.3532 17.5875L25.9125 18.6094C26.2864 18.7612 26.607 19.0202 26.8339 19.3539C27.0608 19.6876 27.1838 20.0809 27.1875 20.4844V25.1719C27.1854 25.4464 27.1277 25.7176 27.0179 25.9692C26.9082 26.2208 26.7486 26.4476 26.5489 26.6359C26.3492 26.8242 26.1135 26.9702 25.8559 27.065C25.5983 27.1598 25.3242 27.2015 25.05 27.1875C7.11566 26.0719 3.49691 10.8844 2.81253 5.07191C2.78076 4.78648 2.80979 4.49755 2.8977 4.22414C2.98562 3.95073 3.13042 3.69903 3.3226 3.4856C3.51477 3.27218 3.74996 3.10186 4.01268 2.98585C4.27541 2.86984 4.55972 2.81078 4.84691 2.81254H9.37503C9.77911 2.81373 10.1736 2.93579 10.5077 3.163C10.8419 3.39022 11.1004 3.7122 11.25 4.08754L12.2719 6.64691C12.4221 7.01542 12.4605 7.42002 12.3821 7.81017C12.3037 8.20033 12.1122 8.55875 11.8313 8.84066L9.73128 10.9407C9.73128 10.9407 10.9407 19.125 19.0594 20.1375Z" fill="white"/>
</svg>
