<svg width="30" height="30" viewBox="0 0 30 30" fill="none" xmlns="http://www.w3.org/2000/svg">
<path d="M15.1012 16.165C14.1262 18.1787 12.79 20.905 12.1275 22.135C11.4862 23.255 10.9525 23.105 10.53 22.165C9.065 18.7025 6.055 12.6337 4.64 9.23124C4.37875 8.60374 4.18125 8.20249 3.995 8.04374C3.80625 7.88749 3.4175 7.79374 2.825 7.75999C2.6075 7.73624 2.5 7.68374 2.5 7.59624V7.12249L2.55375 7.07499C3.5175 7.06999 8.1825 7.07499 8.1825 7.07499L8.235 7.12249V7.57499C8.235 7.69999 8.15625 7.75874 8 7.75874L7.4125 7.78874C6.90875 7.82124 6.65625 7.95999 6.65625 8.24499C6.65625 8.38499 6.71125 8.58874 6.83 8.87124C7.9575 11.6287 11.8512 19.8362 11.8512 19.8362L11.9937 19.885L14.5062 14.87L14.0037 13.7575L12.275 10.3562C12.275 10.3562 11.9437 9.67499 11.8287 9.44749C11.07 7.94374 11.0875 7.86624 10.3212 7.76374C10.105 7.73874 9.995 7.71124 9.995 7.60749V7.11999L10.0575 7.07374H14.53L14.6487 7.11124V7.58124C14.6487 7.69124 14.57 7.73749 14.4125 7.73749L14.0912 7.78624C13.2662 7.84999 13.4025 8.18374 13.95 9.26874L15.5987 12.6587L17.43 9.00624C17.735 8.33999 17.6725 8.17124 17.5462 8.01999C17.4737 7.93249 17.2275 7.78874 16.7 7.76999L16.49 7.74749C16.4349 7.74756 16.3815 7.72857 16.3387 7.69374C16.3167 7.67917 16.2988 7.65927 16.2865 7.63588C16.2743 7.61249 16.2682 7.58638 16.2687 7.55999V7.11374L16.3325 7.06749C17.6325 7.05874 20.5462 7.06749 20.5462 7.06749L20.6087 7.11374V7.56874C20.6087 7.69499 20.5462 7.75374 20.4075 7.75374C19.7337 7.78374 19.5925 7.85249 19.34 8.21124C19.215 8.40374 18.9487 8.82374 18.6675 9.29249L16.2687 13.7462L16.2012 13.8862L19.1112 19.84L19.2887 19.8912L23.87 9.01124C24.0312 8.57124 24.0037 8.25874 23.8037 8.07874C23.5975 7.89874 23.4425 7.79374 22.9087 7.77124L22.4712 7.75374C22.4147 7.75574 22.3591 7.73952 22.3125 7.70749C22.291 7.69408 22.273 7.67576 22.2599 7.65403C22.2469 7.63229 22.2392 7.60777 22.2375 7.58249V7.13124L22.2987 7.08374H27.47L27.5125 7.13124V7.58624C27.5125 7.71124 27.435 7.77374 27.295 7.77374C26.6187 7.80374 26.12 7.96124 25.7912 8.21249C25.4625 8.47874 25.21 8.85499 25.0237 9.32499C25.0237 9.32499 20.81 18.975 19.3687 22.1862C18.8212 23.2362 18.2712 23.1425 17.8025 22.1537C17.2062 20.9325 15.955 18.2087 15.045 16.2025L15.1012 16.165V16.165Z" fill="white"/>
</svg>
