<svg width="30" height="30" viewBox="0 0 30 30" fill="none" xmlns="http://www.w3.org/2000/svg">
<g clip-path="url(#clip0_37_28)">
<path d="M29.375 8.13384C29.2051 7.52788 28.8742 6.97928 28.4175 6.54634C27.9479 6.1001 27.3722 5.78089 26.745 5.61884C24.3975 5.00009 14.9925 5.0001 14.9925 5.0001C11.0717 4.95549 7.15178 5.15169 3.25499 5.58759C2.62773 5.76161 2.0532 6.08795 1.58249 6.53759C1.11999 6.98259 0.784993 7.53134 0.609993 8.13259C0.18961 10.3973 -0.0146417 12.6968 -6.71922e-06 15.0001C-0.0150067 17.3013 0.188743 19.6001 0.609993 21.8676C0.781243 22.4663 1.11499 23.0126 1.57874 23.4538C2.04249 23.8951 2.61999 24.2138 3.25499 24.3826C5.63374 25.0001 14.9925 25.0001 14.9925 25.0001C18.9183 25.0448 22.8432 24.8486 26.745 24.4126C27.3722 24.2505 27.9479 23.9313 28.4175 23.4851C28.8741 23.0522 29.2046 22.5036 29.3737 21.8976C29.8051 19.6338 30.0148 17.3333 30 15.0288C30.0324 12.7146 29.823 10.4033 29.375 8.13259V8.13384ZM12.0025 19.2801V10.7213L19.8275 15.0013L12.0025 19.2801Z" fill="white"/>
</g>
<defs>
<clipPath id="clip0_37_28">
<rect width="30" height="30" fill="white"/>
</clipPath>
</defs>
</svg>
