<svg width="356" height="362" viewBox="0 0 356 362" fill="none" xmlns="http://www.w3.org/2000/svg">
<g clip-path="url(#clip0_28_65)">
<path d="M164.89 0.673727C158.685 2.02019 155.055 4.36185 152.421 8.63539C151.777 9.74769 151.016 10.8014 150.84 10.9771C150.665 11.1527 149.201 13.2602 147.621 15.6604C145.981 18.0606 144.576 20.1681 144.401 20.3437C144.225 20.5194 141.239 24.9685 137.668 30.2958C134.156 35.5646 130.643 40.5406 129.941 41.3602C129.238 42.1212 127.716 44.4629 126.487 46.5119C125.316 48.5023 124.087 50.2 123.853 50.2C123.56 50.2 123.326 50.5512 123.326 51.0196C123.326 51.4294 122.916 52.1319 122.448 52.5416C121.979 52.9514 121.569 53.4783 121.569 53.771C121.569 54.5321 153.533 54.415 158.743 53.6539C161.144 53.3027 163.134 52.7758 163.134 52.5416C163.134 52.3075 163.719 51.9562 164.481 51.7221C166.061 51.3123 170.569 47.0387 171.037 45.4581C171.271 44.8727 171.681 44.3458 171.974 44.3458C172.267 44.3458 172.501 43.9946 172.501 43.5848C172.501 43.175 173.145 42.1798 173.964 41.3016C174.784 40.4235 175.428 39.4869 175.428 39.1356C175.428 38.8429 175.662 38.4916 175.896 38.3746C176.13 38.2575 177.711 36.0914 179.35 33.5156C180.989 30.9398 182.746 28.3639 183.214 27.8371C183.741 27.3102 183.975 26.7248 183.799 26.5491C183.565 26.3735 180.697 26.1979 177.36 26.1979C171.33 26.1979 169.222 25.3783 174.667 25.1441C178.94 24.9685 180.697 24.5002 184.033 22.861C187.195 21.3389 188.19 20.3437 192.581 14.1969C195.508 10.0989 201.772 0.498102 201.772 0.146852C201.772 -0.497106 167.993 0.0297691 164.89 0.673727ZM175.311 11.3869C175.428 12.1479 175.252 12.7333 174.901 12.7333C174.55 12.7333 174.257 13.0846 174.257 13.5529C174.257 13.9627 173.145 15.5433 171.798 17.0069C169.281 19.6412 165.476 21.1633 164.305 19.9925C163.954 19.6412 165.066 17.4166 166.822 14.6066L169.866 9.80623L172.501 9.92331C174.725 10.0989 175.135 10.2746 175.311 11.3869ZM159.973 32.9302C160.383 33.9254 157.104 39.6625 155.114 41.5358C154.294 42.2969 152.714 42.8823 150.84 43.0579C147.855 43.3506 147.211 42.8237 148.674 41.3016C149.552 40.3064 153.182 35.0377 153.182 34.6864C153.182 34.5108 153.65 33.8669 154.177 33.2229C155.407 31.7594 159.446 31.5837 159.973 32.9302Z" fill="#404E87"/>
<path d="M215.704 0.732516C209.85 2.02043 207.274 3.6596 203.878 8.28439C202.181 10.5675 200.19 13.5531 199.429 14.8996C198.668 16.3046 197.849 17.4169 197.556 17.4169C197.322 17.4169 197.087 17.8267 197.087 18.295C197.087 18.7634 196.502 19.7 195.8 20.4611C195.039 21.2221 193.224 23.6809 191.702 26.0225C190.18 28.3056 187.487 32.2865 185.672 34.8038C183.916 37.3211 182.159 39.7798 181.867 40.2481C181.574 40.7165 180.403 42.5313 179.232 44.2875C178.12 45.9852 177.183 47.6244 177.183 47.9171C177.183 48.2098 176.949 48.444 176.715 48.444C176.305 48.444 173.32 52.7175 172.968 53.8884C172.851 54.1811 180.169 54.3567 189.184 54.3567C204.874 54.2981 214.65 53.5956 214.65 52.4834C214.65 52.1906 215.001 51.9565 215.47 51.9565C216.816 51.9565 220.094 48.5025 223.841 43.1752C228.817 36.1502 233.852 28.774 236.076 25.32C238.008 22.3929 242.34 16.129 249.482 5.88418C251.59 2.89856 253.287 0.381266 253.287 0.147099C253.287 -0.496859 219.041 0.0300158 215.704 0.732516ZM224.836 12.4409C225.89 13.2019 225.831 13.3775 223.782 16.2461C222.612 17.8267 221.675 19.2902 221.675 19.4659C221.675 19.6415 221.031 20.5196 220.211 21.3392C219.45 22.2173 218.514 23.6809 218.104 24.559C217.753 25.4371 217.226 26.1981 216.933 26.1981C216.64 26.1981 216.406 26.4909 216.406 26.7836C216.406 27.1348 214.591 29.9448 212.308 33.1061C210.084 36.2088 207.918 39.2529 207.508 39.8384C206.63 41.0092 202.532 41.7702 201.302 40.9506C200.659 40.5409 201.42 39.0773 204.464 34.6281C206.688 31.4669 209.615 27.0763 211.079 24.8517C212.484 22.6856 213.889 20.9294 214.182 20.9294C214.416 20.9294 214.65 20.5196 214.65 20.0513C214.65 19.5829 214.884 19.1731 215.118 19.1731C215.411 19.1731 216.348 17.8267 217.226 16.2461C219.333 12.3238 222.553 10.7431 224.836 12.4409Z" fill="#404E87"/>
<path d="M268.802 0.615801C264.528 1.43538 259.903 3.89413 258.03 6.29434C257.152 7.40663 254.576 11.0948 252.41 14.4902C250.185 17.8856 248.078 20.9298 247.727 21.3396C246.79 22.2177 239.18 33.3406 238.067 35.3896C236.077 39.0191 230.34 46.6296 228.935 47.5662C228.057 48.0931 226.476 48.6785 225.364 48.7371C223.373 48.9712 222.671 49.5566 220.798 52.6593L219.861 54.2985H226.827C240.175 54.2985 244.507 52.6593 249.659 45.81C251.298 43.6439 261.835 27.4864 262.186 26.6668C262.421 26.0814 262.889 25.6131 263.24 25.6131C263.533 25.6131 263.826 25.2618 263.884 24.8521C263.884 24.5008 265.523 21.925 267.572 19.1735C270.909 14.6073 271.378 14.1975 273.426 14.0218C274.656 13.9048 276.061 13.9633 276.529 14.1975C277.349 14.4902 277.349 14.6073 276.588 15.5439C276.061 16.0708 275.534 17.066 275.3 17.71C275.124 18.3539 274.363 19.5248 273.602 20.3443C272.841 21.1639 271.729 22.7446 271.085 23.8568C270.499 24.9691 269.68 26.1985 269.329 26.5498C268.977 26.9596 267.806 28.6573 266.694 30.4135C265.64 32.1112 264.528 33.5748 264.294 33.6918C264.001 33.8089 263.826 34.1602 263.826 34.5114C263.826 34.8041 263.474 35.4481 263.123 35.8579C261.952 37.1458 250.946 53.5375 250.946 54.0058C250.946 54.5327 259.494 54.2985 262.713 53.7131C268.919 52.5423 272.548 49.9079 276.354 43.8781C277.349 42.2389 279.222 39.3704 280.569 37.4971C284.14 32.3454 289.525 24.5008 291.75 21.2225C292.804 19.5833 293.975 18.0027 294.267 17.5929C294.619 17.1831 294.853 16.6562 294.853 16.305C294.853 16.0123 295.028 15.661 295.321 15.5439C295.555 15.4268 296.785 13.7877 298.073 11.8558C299.36 9.92393 300.59 8.22622 300.883 8.16768C301.117 8.05059 301.292 7.58226 301.292 7.17247C301.292 6.76268 301.468 6.29434 301.761 6.17726C302.229 5.94309 305.976 0.674342 305.976 0.206009C305.976 -0.379408 271.904 -0.0281577 268.802 0.615801Z" fill="#404E87"/>
<path d="M321.488 0.439264C320.844 0.731972 319.674 0.966139 318.913 0.966139C316.922 1.02468 311.771 3.60051 310.307 5.23968C309.604 5.94218 308.199 7.87406 307.146 9.51322C306.033 11.0938 304.98 12.4988 304.687 12.6159C304.453 12.733 304.219 13.2013 304.219 13.6697C304.219 14.138 303.984 14.4893 303.633 14.4893C303.341 14.4893 303.048 14.782 303.048 15.0747C303.048 15.4259 302.053 17.0651 300.823 18.7628C299.535 20.4605 296.081 25.4951 293.096 30.0028C290.052 34.5105 287.476 38.3157 287.3 38.4913C287.124 38.667 286.715 39.1938 286.363 39.7793C286.071 40.3061 283.729 43.7016 281.212 47.3897L276.646 54.0049L280.334 54.1805C285.661 54.4732 292.276 53.3024 295.086 51.5461C298.013 49.7313 298.716 48.9703 301.292 45.2236C302.404 43.5845 303.575 42.0038 303.926 41.5941C305.565 39.6622 305.975 39.0768 305.975 38.7841C305.975 38.6084 307.029 37.0278 308.317 35.2716C309.604 33.5153 310.658 31.8176 310.658 31.4663C310.658 31.1736 310.892 30.8809 311.185 30.8809C311.478 30.8809 312.122 30.0028 312.649 28.9491C313.702 26.8416 314.873 24.9097 315.342 24.4413C316.337 23.4461 320.61 17.3578 320.61 16.948C320.61 16.6553 321.137 15.9528 321.781 15.3674C322.835 14.4307 324.123 14.2551 331.323 14.1966C339.636 14.0795 341.158 13.7868 344.847 11.3866C347.891 9.45468 356.321 1.37593 356.321 0.439264C356.321 -0.263236 323.128 -0.263236 321.488 0.439264Z" fill="#404E87"/>
<path d="M63.3201 66.1235C59.8076 66.3576 56.2366 66.6503 55.417 66.7674C52.5485 67.2943 42.8306 70.2214 42.3037 70.7483C41.9524 71.041 41.3085 71.2751 40.7816 71.2751C39.7278 71.2751 31.0051 75.6658 29.6001 76.8951C29.1318 77.3635 28.4293 77.7147 28.1366 77.7147C26.6145 77.7147 14.6135 89.2474 11.8035 93.4039C6.6518 100.897 3.49055 108.098 1.0318 117.816C-0.0219542 121.914 -0.431746 137.369 0.329296 142.696C2.14409 155.048 4.13451 161.488 10.2814 174.367C11.9205 177.821 13.267 180.924 13.267 181.275C13.267 181.626 13.5012 181.919 13.8524 181.919C14.1451 181.919 14.5549 182.563 14.7891 183.382C14.9647 184.202 15.3745 184.846 15.6672 184.846C15.9599 184.846 16.1941 185.197 16.1941 185.607C16.1941 186.778 18.4772 188.71 19.0041 188.007C20.6433 186.134 22.6337 183.09 22.6337 182.563C22.6337 182.212 22.8093 181.919 23.102 181.919C23.3362 181.86 25.0339 179.694 26.9072 177.06C28.7806 174.426 31.7662 170.269 33.4639 167.869C35.8056 164.591 36.4495 163.303 36.0397 162.6C35.747 162.132 34.986 160.902 34.342 159.966C32.5858 157.214 30.2441 152.004 30.2441 150.95C30.2441 150.423 30.0099 149.721 29.7172 149.428C29.4245 149.077 28.7806 146.911 28.1951 144.569C27.3756 141.232 27.2585 138.598 27.4341 131.69C27.6683 124.197 27.961 122.499 29.366 118.401C30.2441 115.825 31.4149 112.898 31.9418 111.962C35.9226 104.527 43.0647 97.9701 49.2701 95.8041C50.5581 95.3943 51.9631 94.7503 52.4314 94.3991C53.3681 93.6966 92.8837 93.1697 92.8837 93.8722C92.8837 94.1064 92.5324 94.7503 92.0641 95.2187C91.6543 95.7456 89.781 98.3799 87.9077 101.131C80.3558 112.254 79.2435 113.718 78.7752 113.893C78.4824 114.011 78.2483 114.479 78.2483 114.947C78.2483 115.416 78.0141 115.767 77.7799 115.767C77.5458 115.767 76.6677 116.821 75.9066 118.108C75.087 119.396 74.2674 120.45 74.0333 120.45C73.7406 120.45 73.5649 120.801 73.5649 121.27C73.5649 121.738 73.3893 122.206 73.1552 122.323C72.8624 122.382 71.6331 124.08 70.3452 126.012C67.8279 129.7 56.9976 144.862 56.0024 146.033C55.7097 146.443 55.417 147.028 55.417 147.379C55.417 147.672 55.1829 147.965 54.8901 147.965C54.5974 147.965 54.1876 148.433 54.012 148.96C53.8364 149.545 53.0754 150.658 52.3143 151.477C51.6118 152.297 50.3239 153.995 49.5629 155.282C48.7433 156.57 47.8066 158.034 47.3968 158.502C46.1674 160.024 36.5666 173.547 33.3468 178.289C31.6491 180.748 30.0099 183.09 29.6587 183.5C29.366 183.909 29.0733 184.495 29.0733 184.846C29.0733 185.139 28.8391 185.431 28.5464 185.431C28.2537 185.431 27.8439 185.9 27.6683 186.427C27.4926 187.012 26.7316 188.124 25.9706 188.944C25.2681 189.763 23.9216 191.344 23.0435 192.515L21.4043 194.681L23.0435 198.076C23.9216 200.008 24.7997 201.647 24.9753 201.823C25.151 201.999 25.7949 203.287 26.4389 204.75C27.0243 206.214 27.8439 207.794 28.1951 208.263C28.6049 208.731 29.4245 210.312 30.0099 211.717C30.6539 213.18 32.1174 216.283 33.2883 218.683L35.3958 223.015L40.5474 216.107C43.3574 212.302 47.0456 207.092 48.8018 204.516C50.5581 201.882 52.3143 199.364 52.6656 198.896C53.0754 198.369 54.3047 196.613 55.417 194.915C56.5293 193.276 57.6416 191.871 57.9343 191.871C58.1685 191.871 58.3441 191.461 58.3441 190.993C58.3441 190.525 58.5783 190.115 58.8124 190.115C59.0466 190.115 60.0418 188.885 61.037 187.363C61.9737 185.9 63.0274 184.378 63.3201 184.026C63.6714 183.675 64.9593 181.802 66.2472 179.87C68.5304 176.475 79.4191 161.254 80.5899 159.849C80.9412 159.439 81.1754 158.971 81.1754 158.795C81.1754 158.561 81.5266 158.092 81.9364 157.683C82.2877 157.214 83.0487 156.278 83.517 155.575C83.9854 154.873 84.922 153.585 85.566 152.765C86.2099 151.946 87.2637 150.423 87.9077 149.37C89.5468 146.735 93.352 141.35 99.7331 132.627C102.719 128.47 105.529 124.49 105.88 123.67C106.231 122.85 106.758 122.206 107.051 122.206C107.285 122.206 107.519 121.797 107.519 121.328C107.519 120.86 107.753 120.45 108.046 120.45C108.339 120.45 108.748 119.982 108.924 119.396C109.158 118.87 110.329 117.23 111.617 115.767C112.905 114.303 113.959 112.781 113.959 112.371C113.959 112.02 114.134 111.669 114.427 111.669C114.661 111.669 115.481 110.615 116.3 109.327C117.12 108.039 117.94 106.986 118.174 106.986C118.466 106.986 118.642 106.693 118.642 106.342C118.642 106.049 120.047 103.883 121.745 101.541C123.442 99.1995 125.433 96.331 126.252 95.1601L127.716 92.9356H205.928H284.139L288.179 87.3156C290.403 84.2714 292.511 81.2858 292.804 80.7589C293.155 80.2906 295.555 76.8366 298.248 73.1485C300.882 69.4603 303.048 66.2991 303.048 66.0649C303.048 65.5381 71.6916 65.5966 63.3201 66.1235Z" fill="#404E87"/>
<path d="M146.508 105.639C145.395 107.22 141.941 112.02 138.897 116.352C135.853 120.684 133.043 124.548 132.692 124.958C132.399 125.368 132.106 125.953 132.106 126.304C132.106 126.597 131.931 126.89 131.697 126.89C131.404 126.89 130.584 127.944 129.765 129.232C129.004 130.519 128.126 131.573 127.891 131.573C127.657 131.573 127.423 131.983 127.423 132.451C127.423 132.92 127.13 133.329 126.838 133.329C126.486 133.329 125.96 133.973 125.667 134.852C125.081 136.374 121.628 141.057 120.866 141.408C120.574 141.525 120.398 141.877 120.398 142.169C120.398 142.52 118.935 144.745 117.178 147.087C115.422 149.487 113.959 151.712 113.959 152.063C113.959 152.355 113.724 152.648 113.49 152.648C113.022 152.648 108.28 159.263 104.006 165.82C102.777 167.752 101.255 169.859 100.611 170.503C100.026 171.147 99.0304 172.494 98.3865 173.43C97.8011 174.426 95.1667 178.172 92.5909 181.743C90.015 185.373 86.7367 190.056 85.2732 192.222C83.8096 194.33 82.3461 196.379 81.9948 196.73C81.7021 197.14 80.4727 198.896 79.3019 200.652C78.1896 202.409 76.0236 205.453 74.56 207.385C73.0965 209.317 71.3988 211.541 70.7548 212.361C70.1694 213.18 69.1742 214.761 68.5302 215.873C67.9448 216.985 67.3009 218.039 67.1252 218.215C66.3642 218.917 55.534 233.904 54.5388 235.602C53.8948 236.655 53.1923 237.534 52.9582 237.534C52.724 237.534 52.4898 237.826 52.4898 238.119C52.4898 238.47 51.319 240.402 49.8554 242.451C48.3919 244.559 47.2211 246.432 47.2211 246.608C47.2211 246.783 48.0407 248.657 48.9773 250.705C49.9725 252.754 50.7336 254.628 50.7336 254.862C50.7336 255.096 51.6702 257.262 52.8411 259.721C54.0119 262.18 56.0609 266.512 57.4659 269.439C58.8123 272.307 60.1588 275.234 60.3929 275.878C60.7442 276.932 60.9784 276.815 62.7932 274.708C63.8469 273.42 64.9007 271.898 65.1348 271.312C65.3104 270.785 65.7202 270.317 66.0129 270.317C66.3057 270.317 66.5398 269.907 66.5398 269.439C66.5398 268.97 66.774 268.561 67.0667 268.561C67.3594 268.561 67.8863 267.741 68.2961 266.804C68.7059 265.809 69.2327 265.048 69.5254 265.048C69.8182 265.048 70.0523 264.697 70.0523 264.229C70.0523 263.76 70.4621 263.292 70.9304 263.058C71.3988 262.882 71.8086 262.414 71.8086 262.004C71.8086 261.594 72.4525 260.54 73.2721 259.662C74.0917 258.784 74.7357 257.906 74.7357 257.73C74.7357 257.555 75.0284 257.087 75.3211 256.677C76.3163 255.506 87.1465 240.344 89.6638 236.655C90.9517 234.724 92.1811 233.026 92.4738 232.967C92.7079 232.85 92.8836 232.499 92.8836 232.206C92.8836 231.855 93.1177 231.328 93.469 230.918C96.3961 227.406 98.2109 224.947 100.201 221.962C101.489 220.088 102.66 218.39 102.836 218.215C103.011 218.039 104.182 216.342 105.47 214.41C107.578 211.131 119.637 194.213 120.984 192.632C121.276 192.222 121.569 191.637 121.569 191.286C121.569 190.993 121.803 190.7 122.096 190.7C122.389 190.7 124.145 188.3 126.018 185.432C127.891 182.504 129.648 180.163 129.882 180.163C130.116 180.163 130.35 179.929 130.35 179.577C130.35 179.285 133.043 175.245 136.38 170.679C139.717 166.054 143.464 160.727 144.751 158.795C147.035 155.283 147.62 154.404 148.849 153.058C150.079 151.594 154.352 145.682 154.352 145.389C154.352 145.213 154.762 144.569 155.23 144.043C155.991 143.106 157.572 140.881 164.597 130.812L166.119 128.646H171.973C175.135 128.646 177.769 128.822 177.769 129.056C177.769 129.7 175.193 133.329 174.725 133.329C174.432 133.329 174.256 133.622 174.256 133.915C174.256 134.266 172.383 137.018 170.159 140.12C167.875 143.164 165.065 147.204 163.895 149.019C162.724 150.833 161.611 152.473 161.377 152.648C160.558 153.292 156.109 159.673 156.109 160.259C156.109 160.551 155.874 160.844 155.64 160.844C155.406 160.844 154.411 162.073 153.416 163.595C152.479 165.059 151.484 166.581 151.133 166.932C149.728 168.454 146.859 172.377 145.864 174.133C145.22 175.187 144.517 176.065 144.342 176.065C144.108 176.065 143.698 176.592 143.522 177.294C143.288 177.938 139.19 183.909 134.331 190.525C129.531 197.14 125.433 202.935 125.257 203.462C125.023 203.931 124.438 204.809 123.969 205.394C123.442 205.921 122.389 207.326 121.569 208.555C120.749 209.726 119.754 211.014 119.403 211.483C118.993 211.892 118.642 212.536 118.642 212.888C118.642 213.239 118.408 213.532 118.174 213.532C117.881 213.532 117.354 214.117 117.061 214.819C116.71 215.58 113.959 219.503 110.973 223.601C107.929 227.699 103.655 233.728 101.372 236.948C99.1475 240.227 96.8059 243.446 96.279 244.032C95.7521 244.676 94.2886 246.725 93.0592 248.539C91.8298 250.354 90.659 251.935 90.4248 252.052C90.1321 252.169 89.9565 252.637 89.9565 253.106C89.9565 253.574 89.7223 253.925 89.4882 253.925C89.1954 253.925 88.4344 254.92 87.7319 256.091C87.0879 257.321 84.7463 260.658 82.6388 263.585C72.0427 277.927 66.5984 285.83 66.5398 286.65C66.5398 287.587 68.179 291.099 72.5696 299.88C77.6042 309.833 78.2482 311.296 78.2482 311.882C78.2482 313.462 80.18 312.116 82.1704 309.189C83.3998 307.374 84.7463 305.559 85.1561 305.149C85.5073 304.681 85.8586 304.095 85.8586 303.744C85.8586 303.393 86.0927 303.1 86.3269 303.1C86.5611 303.1 88.4929 300.524 90.6004 297.422C92.6494 294.319 94.6398 291.509 94.9325 291.158C95.2838 290.807 96.5132 289.05 97.7425 287.294C99.9086 284.074 102.66 280.328 104.299 278.337C104.768 277.81 105.177 277.166 105.177 276.991C105.177 276.639 111.09 267.858 111.675 267.39C112.319 266.863 118.642 258.082 118.642 257.73C118.642 257.555 119.169 256.794 119.871 256.091C120.515 255.389 122.096 253.223 123.384 251.291C125.55 248.013 129.121 242.802 130.76 240.578C134.799 235.192 149.728 214 151.542 211.131C152.069 210.312 152.889 209.258 153.299 208.79C154.762 207.326 159.036 201.296 159.036 200.711C159.036 200.418 159.27 200.067 159.563 199.95C159.797 199.833 161.26 197.901 162.724 195.676C164.187 193.393 165.885 190.934 166.529 190.115C169.046 187.071 177.184 175.421 177.184 174.953C177.184 174.66 177.418 174.309 177.652 174.192C178.12 174.016 185.379 164.005 187.955 159.966C188.599 159.029 189.302 157.975 189.594 157.624C189.829 157.332 191.292 155.341 192.814 153.234C194.336 151.126 195.741 149.311 195.917 149.136C196.093 148.96 197.263 147.262 198.551 145.33C199.781 143.399 202.942 138.832 205.576 135.261L210.26 128.705L216.289 128.646C219.568 128.646 222.261 128.88 222.261 129.114C222.261 129.524 218.631 134.793 216.992 136.666C216.699 137.076 216.406 137.544 216.406 137.662C216.406 137.837 212.835 142.872 208.445 148.902C204.113 154.873 200.249 160.376 199.898 161.195C199.546 161.956 199.02 162.6 198.727 162.6C198.493 162.6 198.259 163.01 198.259 163.478C198.259 163.947 198.083 164.357 197.79 164.357C197.556 164.357 196.912 165.235 196.327 166.23C195.741 167.284 194.453 169.098 193.458 170.211C192.463 171.323 190.999 173.313 190.121 174.601C189.302 175.889 188.482 177.06 188.306 177.236C188.072 177.411 187.077 178.816 185.965 180.455C180.93 187.949 171.388 201.413 170.159 202.818C169.866 203.228 169.573 203.755 169.573 204.106C169.573 204.399 169.398 204.75 169.163 204.867C168.344 205.219 163.134 212.244 162.548 213.766C162.255 214.585 161.787 215.288 161.553 215.288C161.26 215.288 160.558 216.224 159.972 217.337C159.328 218.449 158.626 219.386 158.333 219.386C158.099 219.386 157.865 219.62 157.865 219.971C157.865 220.674 152.713 227.816 151.952 228.05C151.659 228.167 151.425 228.518 151.425 228.811C151.425 229.162 150.02 231.27 148.323 233.611C146.625 235.953 143.99 239.641 142.468 241.924C140.946 244.149 138.253 248.013 136.497 250.413C134.682 252.813 132.926 255.33 132.516 255.916C132.165 256.501 130.292 259.077 128.477 261.653C126.604 264.17 125.081 266.395 125.081 266.512C125.081 266.687 124.789 267.156 124.496 267.565C123.208 269.088 105.997 293.207 104.475 295.607C103.597 297.012 102.484 298.651 102.016 299.295C101.489 299.939 100.318 301.52 99.3232 302.808C98.3865 304.095 97.3913 305.383 97.0986 305.735C96.8644 306.027 95.2252 308.428 93.4104 311.003C91.6542 313.579 88.9613 317.443 87.4392 319.609C85.9171 321.775 84.6877 323.765 84.6877 324.117C84.6877 324.409 85.3317 325.932 86.0927 327.512C86.8538 329.034 88.4929 332.43 89.7809 335.005C91.0102 337.581 92.1225 339.806 92.2982 339.982C92.5323 340.157 94.0544 343.143 95.8107 346.597C97.5084 350.109 99.1475 353.036 99.3817 353.153C99.7329 353.446 102.777 349.29 105.997 344.138C107.46 341.796 110.739 337.289 111.617 336.469C111.793 336.293 112.202 335.708 112.495 335.181C114.368 331.903 118.174 326.985 120.984 324.117C122.74 322.36 124.613 320.136 125.081 319.141C125.55 318.204 126.252 317.092 126.662 316.682C127.072 316.272 127.833 315.16 128.418 314.223C128.945 313.228 129.648 312.467 129.882 312.467C130.116 312.467 130.35 312.174 130.35 311.823C130.35 311.296 136.38 302.749 137.317 301.929C137.609 301.695 140.654 297.305 143.229 293.382C145.337 290.163 148.849 285.187 149.435 284.601C149.786 284.191 151.425 281.967 153.064 279.567C156.987 274.064 162.899 265.575 163.719 264.463C164.012 263.994 167.349 259.37 171.037 254.218C178.764 243.505 183.389 236.714 185.789 232.44C186.667 230.801 188.014 228.694 188.775 227.757C191.234 224.654 200.132 212.068 200.483 211.19C200.659 210.722 201.303 209.785 201.947 209.141C202.532 208.497 203.586 207.033 204.288 205.921C204.932 204.809 205.693 203.755 205.869 203.579C206.045 203.404 208.269 200.301 210.845 196.672C213.362 192.983 215.997 189.588 216.699 189.061C217.402 188.534 218.455 187.246 219.099 186.31C219.685 185.314 223.9 179.402 228.466 173.138C233.032 166.874 237.13 160.903 237.657 159.966C238.125 158.971 239.121 157.624 239.765 156.922C240.467 156.219 240.994 155.4 240.994 155.107C240.994 154.814 241.404 154.17 241.931 153.76C242.458 153.351 243.745 151.653 244.799 150.014C246.79 147.028 252.293 139.242 259.552 129.29C261.718 126.246 264.528 122.324 265.757 120.509C268.684 116.235 269.855 114.596 270.558 113.777C271.787 112.489 277.29 103.942 277.29 103.415C277.29 103.122 251.531 102.888 212.894 102.888H148.498L146.508 105.639Z" fill="#404E87"/>
<path d="M216.992 198.662C214.651 202.585 208.152 211.424 207.508 211.659C207.274 211.776 207.04 212.127 207.04 212.478C207.04 212.771 206.689 213.356 206.338 213.825C205.928 214.234 204.406 216.342 202.942 218.508C201.479 220.615 198.786 224.479 196.971 227.055C195.098 229.572 193.576 231.855 193.576 232.031C193.576 232.148 193.049 232.851 192.405 233.553C191.292 234.783 191.234 235.661 191.234 267.156V299.413L186.843 305.501C184.443 308.838 182.277 311.823 182.043 312.175C181.75 312.467 181.223 313.463 180.755 314.341C179.935 315.921 174.55 321.775 171.915 323.883C170.335 325.171 165.651 328.039 162.841 329.503C159.212 331.376 149.084 333.542 143.815 333.542C140.83 333.542 131.112 332.137 124.672 330.791C123.735 330.557 123.033 331.084 121.628 333.015C120.633 334.42 119.579 335.884 119.228 336.294C118.935 336.704 118.642 337.23 118.642 337.582C118.642 337.874 118.408 338.226 118.115 338.343C117.881 338.401 115.715 341.27 113.373 344.665C111.032 348.061 108.339 351.749 107.402 352.92C106.524 354.09 105.763 355.32 105.763 355.613C105.763 357.31 130.058 361.642 139.483 361.642C144.81 361.642 154.118 360.472 158.743 359.184C165.651 357.31 165.885 357.252 171.622 354.559C173.906 353.564 176.54 352.042 177.594 351.339C178.589 350.578 179.701 349.934 179.994 349.934C180.345 349.934 180.696 349.758 180.813 349.466C180.931 349.231 182.16 348.119 183.623 347.007C188.482 343.319 195.449 336.469 197.556 333.425C198.083 332.664 198.961 331.61 199.488 331.025C200.015 330.44 200.952 329.093 201.537 327.981C202.123 326.869 202.825 325.932 203.059 325.932C203.352 325.932 203.528 325.639 203.528 325.346C203.528 324.995 203.82 324.41 204.113 324C204.464 323.59 205.694 321.951 206.923 320.37C208.094 318.731 209.265 317.385 209.557 317.268C209.792 317.151 209.967 316.799 209.967 316.507C209.967 316.038 213.246 311.238 222.085 299.061C224.251 296.017 226.535 292.739 227.178 291.744C227.764 290.748 228.408 289.812 228.642 289.636C228.876 289.46 230.164 287.704 231.511 285.655C232.857 283.665 234.438 281.499 235.023 280.913C235.843 279.977 240.585 272.952 242.458 269.849C242.809 269.322 243.16 268.737 243.336 268.561C244.448 267.507 253.405 255.038 257.327 248.95C258.615 247.018 260.196 244.852 260.84 244.149C261.542 243.447 262.069 242.686 262.069 242.51C262.069 242.334 264.177 239.29 266.753 235.778C269.328 232.265 271.436 229.221 271.436 229.104C271.436 228.928 272.08 228.109 272.9 227.231C273.719 226.353 275.183 224.245 276.119 222.606C277.056 220.967 278.285 219.093 278.871 218.391C279.456 217.688 280.334 216.576 280.803 215.815C281.271 215.113 282.852 212.888 284.315 210.956C285.779 208.966 288.237 205.629 289.76 203.404L292.57 199.482H276.822C262.538 199.482 261.016 199.599 260.196 200.477C259.728 201.063 258.147 203.229 256.683 205.336C255.22 207.444 252.527 211.249 250.712 213.825C248.897 216.4 247.083 218.976 246.673 219.562C244.507 222.84 240.76 227.875 240.292 228.05C240.058 228.167 239.823 228.577 239.823 228.987C239.823 229.397 239.297 230.216 238.653 230.802C238.009 231.387 237.482 232.09 237.482 232.382C237.482 232.792 224.017 251.701 222.261 253.75C221.968 254.16 221.676 254.745 221.676 255.096C221.676 255.389 221.266 255.682 220.797 255.682C220.036 255.682 219.919 251.935 219.919 225.533C219.919 208.966 219.744 195.384 219.51 195.384C219.217 195.384 218.105 196.906 216.992 198.662Z" fill="#404E87"/>
</g>
<defs>
<clipPath id="clip0_28_65">
<rect width="356" height="362" fill="white"/>
</clipPath>
</defs>
</svg>
