<svg width="62" height="42" viewBox="0 0 62 42" fill="none" xmlns="http://www.w3.org/2000/svg">
<path d="M30.1604 0.736289C29.4758 0.88483 29.0754 1.14316 28.7848 1.61462C28.7138 1.73733 28.6298 1.85358 28.6104 1.87296C28.591 1.89233 28.4296 2.12483 28.2552 2.38962C28.0744 2.65441 27.9194 2.88691 27.9 2.90629C27.8806 2.92566 27.5513 3.4165 27.1573 4.00421C26.7698 4.58546 26.3823 5.13441 26.3048 5.22483C26.2273 5.30879 26.0594 5.56712 25.9238 5.79316C25.7946 6.01275 25.659 6.20004 25.6331 6.20004C25.6008 6.20004 25.575 6.23879 25.575 6.29046C25.575 6.33566 25.5298 6.41316 25.4781 6.45837C25.4265 6.50358 25.3813 6.56171 25.3813 6.594C25.3813 6.67796 28.9075 6.66504 29.4823 6.58108C29.7471 6.54233 29.9667 6.48421 29.9667 6.45837C29.9667 6.43254 30.0313 6.39379 30.1152 6.36796C30.2896 6.32275 30.7869 5.85129 30.8385 5.67691C30.8644 5.61233 30.9096 5.55421 30.9419 5.55421C30.9742 5.55421 31 5.51546 31 5.47025C31 5.42504 31.071 5.31525 31.1615 5.21837C31.2519 5.1215 31.3229 5.01816 31.3229 4.97941C31.3229 4.94712 31.3488 4.90837 31.3746 4.89546C31.4004 4.88254 31.5748 4.64358 31.7556 4.35941C31.9365 4.07525 32.1302 3.79108 32.1819 3.73296C32.24 3.67483 32.2658 3.61025 32.2465 3.59087C32.2206 3.5715 31.9042 3.55212 31.536 3.55212C30.8708 3.55212 30.6383 3.46171 31.239 3.43587C31.7104 3.4165 31.9042 3.36483 32.2723 3.184C32.621 3.01608 32.7308 2.90629 33.2152 2.22816C33.5381 1.77608 34.2292 0.716914 34.2292 0.678164C34.2292 0.607122 30.5027 0.665247 30.1604 0.736289ZM31.31 1.91816C31.3229 2.00212 31.3035 2.06671 31.2648 2.06671C31.226 2.06671 31.1938 2.10546 31.1938 2.15712C31.1938 2.20233 31.071 2.37671 30.9225 2.53816C30.6448 2.82879 30.225 2.99671 30.0958 2.86754C30.0571 2.82879 30.1798 2.58337 30.3735 2.27337L30.7094 1.74379L31 1.75671C31.2454 1.77608 31.2906 1.79546 31.31 1.91816ZM29.6179 4.29483C29.6631 4.40462 29.3015 5.03754 29.0819 5.24421C28.9915 5.32816 28.8171 5.39275 28.6104 5.41212C28.281 5.44441 28.21 5.38629 28.3715 5.21837C28.4683 5.10858 28.8688 4.52733 28.8688 4.48858C28.8688 4.46921 28.9204 4.39816 28.9785 4.32712C29.1142 4.16566 29.5598 4.14629 29.6179 4.29483Z" fill="white"/>
<path d="M35.7662 0.742736C35.1204 0.884819 34.8362 1.06565 34.4617 1.57586C34.2744 1.82774 34.0548 2.15711 33.9708 2.30565C33.8869 2.46065 33.7965 2.58336 33.7642 2.58336C33.7383 2.58336 33.7125 2.62857 33.7125 2.68024C33.7125 2.7319 33.6479 2.83524 33.5704 2.91919C33.4865 3.00315 33.2862 3.2744 33.1183 3.53274C32.9504 3.78461 32.6533 4.22378 32.4531 4.50149C32.2594 4.77919 32.0656 5.05044 32.0333 5.10211C32.001 5.15378 31.8719 5.35399 31.7427 5.54774C31.62 5.73503 31.5167 5.91586 31.5167 5.94815C31.5167 5.98044 31.4908 6.00628 31.465 6.00628C31.4198 6.00628 31.0904 6.47774 31.0517 6.6069C31.0387 6.63919 31.846 6.65857 32.8406 6.65857C34.5715 6.65211 35.65 6.57461 35.65 6.4519C35.65 6.41961 35.6887 6.39378 35.7404 6.39378C35.889 6.39378 36.2506 6.01274 36.664 5.42503C37.2129 4.65003 37.7683 3.83628 38.0137 3.45524C38.2269 3.13232 38.7048 2.44128 39.4927 1.31107C39.7252 0.981694 39.9125 0.703986 39.9125 0.678153C39.9125 0.607111 36.1344 0.665236 35.7662 0.742736ZM36.7737 2.0344C36.89 2.11836 36.8835 2.13774 36.6575 2.45419C36.5283 2.62857 36.425 2.79003 36.425 2.8094C36.425 2.82878 36.354 2.92565 36.2635 3.01607C36.1796 3.11294 36.0762 3.2744 36.031 3.37128C35.9923 3.46815 35.9342 3.55211 35.9019 3.55211C35.8696 3.55211 35.8437 3.5844 35.8437 3.61669C35.8437 3.65544 35.6435 3.96544 35.3917 4.31419C35.1462 4.65649 34.9073 4.99232 34.8621 5.0569C34.7652 5.18607 34.3131 5.27003 34.1775 5.17961C34.1065 5.1344 34.1904 4.97294 34.5262 4.48211C34.7717 4.13336 35.0946 3.64899 35.256 3.40357C35.411 3.16461 35.566 2.97086 35.5983 2.97086C35.6242 2.97086 35.65 2.92565 35.65 2.87399C35.65 2.82232 35.6758 2.77711 35.7017 2.77711C35.734 2.77711 35.8373 2.62857 35.9342 2.45419C36.1667 2.02149 36.5219 1.84711 36.7737 2.0344Z" fill="white"/>
<path d="M41.624 0.729841C41.1525 0.820258 40.6423 1.09151 40.4356 1.3563C40.3388 1.47901 40.0546 1.88588 39.8156 2.26047C39.5702 2.63505 39.3377 2.97088 39.299 3.01609C39.1956 3.11297 38.356 4.34005 38.2333 4.56609C38.0138 4.96651 37.3808 5.80609 37.2258 5.90942C37.129 5.96755 36.9546 6.03213 36.8319 6.03859C36.6123 6.06442 36.5348 6.12901 36.3281 6.4713L36.2248 6.65213H36.9933C38.4658 6.65213 38.9438 6.4713 39.5121 5.71567C39.6929 5.47672 40.8554 3.69422 40.8942 3.6038C40.92 3.53922 40.9717 3.48755 41.0104 3.48755C41.0427 3.48755 41.075 3.4488 41.0815 3.40359C41.0815 3.36484 41.2623 3.08067 41.4883 2.77713C41.8565 2.27338 41.9081 2.22817 42.1342 2.2088C42.2698 2.19588 42.4248 2.20234 42.4765 2.22817C42.5669 2.26047 42.5669 2.27338 42.4829 2.37672C42.4248 2.43484 42.3667 2.54463 42.3408 2.61567C42.3215 2.68672 42.2375 2.81588 42.1535 2.9063C42.0696 2.99672 41.9469 3.17109 41.8758 3.2938C41.8113 3.41651 41.7208 3.55213 41.6821 3.59088C41.6433 3.63609 41.5142 3.82338 41.3915 4.01713C41.2752 4.20442 41.1525 4.36588 41.1267 4.3788C41.0944 4.39172 41.075 4.43047 41.075 4.46922C41.075 4.50151 41.0363 4.57255 40.9975 4.61776C40.8683 4.75984 39.6542 6.56817 39.6542 6.61984C39.6542 6.67797 40.5971 6.65213 40.9523 6.58755C41.6369 6.45838 42.0373 6.16776 42.4571 5.50255C42.5669 5.32172 42.7735 5.00526 42.9221 4.79859C43.316 4.23026 43.9102 3.36484 44.1556 3.00317C44.2719 2.82234 44.401 2.64797 44.4333 2.60276C44.4721 2.55755 44.4979 2.49942 44.4979 2.46067C44.4979 2.42838 44.5173 2.38963 44.5496 2.37672C44.5754 2.3638 44.711 2.18297 44.8531 1.96984C44.9952 1.75672 45.1308 1.56942 45.1631 1.56297C45.189 1.55005 45.2083 1.49838 45.2083 1.45317C45.2083 1.40797 45.2277 1.3563 45.26 1.34338C45.3117 1.31755 45.725 0.7363 45.725 0.684633C45.725 0.62005 41.9663 0.6588 41.624 0.729841Z" fill="white"/>
<path d="M47.4365 0.710409C47.3654 0.7427 47.2363 0.768534 47.1523 0.768534C46.9327 0.774992 46.3644 1.05916 46.2029 1.23999C46.1254 1.31749 45.9704 1.53062 45.8542 1.71145C45.7315 1.88583 45.6152 2.04083 45.5829 2.05374C45.5571 2.06666 45.5313 2.11833 45.5313 2.16999C45.5313 2.22166 45.5054 2.26041 45.4667 2.26041C45.4344 2.26041 45.4021 2.2927 45.4021 2.32499C45.4021 2.36374 45.2923 2.54458 45.1567 2.73187C45.0146 2.91916 44.6335 3.47458 44.3042 3.97187C43.9683 4.46916 43.6842 4.88895 43.6648 4.90833C43.6454 4.9277 43.6002 4.98583 43.5615 5.05041C43.5292 5.10853 43.2708 5.48312 42.9931 5.88999L42.4894 6.61978L42.8963 6.63916C43.484 6.67145 44.2138 6.54228 44.5238 6.34853C44.8467 6.14833 44.9242 6.06437 45.2083 5.65103C45.331 5.4702 45.4602 5.29583 45.499 5.25062C45.6798 5.03749 45.725 4.97291 45.725 4.94062C45.725 4.92124 45.8413 4.74687 45.9833 4.55312C46.1254 4.35937 46.2417 4.17208 46.2417 4.13333C46.2417 4.10103 46.2675 4.06874 46.2998 4.06874C46.3321 4.06874 46.4031 3.97187 46.4613 3.85562C46.5775 3.62312 46.7067 3.40999 46.7583 3.35833C46.8681 3.24853 47.3396 2.57687 47.3396 2.53166C47.3396 2.49937 47.3977 2.42187 47.4688 2.35728C47.585 2.25395 47.7271 2.23458 48.5215 2.22812C49.4385 2.2152 49.6065 2.18291 50.0133 1.91812C50.3492 1.70499 51.2792 0.813742 51.2792 0.710409C51.2792 0.632909 47.6173 0.632909 47.4365 0.710409Z" fill="white"/>
<path d="M18.9552 7.95668C18.5677 7.98252 18.1738 8.01481 18.0833 8.02772C17.7669 8.08585 16.6948 8.40877 16.6367 8.46689C16.5979 8.49918 16.5269 8.52501 16.4688 8.52501C16.3525 8.52501 15.3902 9.00939 15.2352 9.14502C15.1835 9.19668 15.106 9.23543 15.0738 9.23543C14.9058 9.23543 13.5819 10.5077 13.2719 10.9663C12.7035 11.7929 12.3548 12.5873 12.0835 13.6594C11.9673 14.1115 11.9221 15.8165 12.006 16.4042C12.2063 17.7669 12.4258 18.4773 13.104 19.8981C13.2848 20.2792 13.4333 20.6215 13.4333 20.6602C13.4333 20.699 13.4592 20.7313 13.4979 20.7313C13.5302 20.7313 13.5754 20.8023 13.6013 20.8927C13.6206 20.9831 13.6658 21.0542 13.6981 21.0542C13.7304 21.0542 13.7563 21.0929 13.7563 21.1381C13.7563 21.2673 14.0081 21.4804 14.0663 21.4029C14.2471 21.1963 14.4667 20.8604 14.4667 20.8023C14.4667 20.7636 14.486 20.7313 14.5183 20.7313C14.5442 20.7248 14.7315 20.4858 14.9381 20.1952C15.1448 19.9046 15.4742 19.4461 15.6615 19.1813C15.9198 18.8196 15.9908 18.6775 15.9456 18.6C15.9133 18.5483 15.8294 18.4127 15.7583 18.3094C15.5646 18.0058 15.3063 17.4311 15.3063 17.3148C15.3063 17.2567 15.2804 17.1792 15.2481 17.1469C15.2158 17.1081 15.1448 16.8692 15.0802 16.6108C14.9898 16.2427 14.9769 15.9521 14.9963 15.19C15.0221 14.3633 15.0544 14.1761 15.2094 13.724C15.3063 13.4398 15.4354 13.1169 15.4935 13.0136C15.9327 12.1933 16.7206 11.47 17.4052 11.2311C17.5473 11.1858 17.7023 11.1148 17.754 11.0761C17.8573 10.9986 22.2167 10.9404 22.2167 11.0179C22.2167 11.0438 22.1779 11.1148 22.1263 11.1665C22.081 11.2246 21.8744 11.5152 21.6677 11.8188C20.8346 13.0458 20.7119 13.2073 20.6602 13.2267C20.6279 13.2396 20.6021 13.2913 20.6021 13.3429C20.6021 13.3946 20.5763 13.4333 20.5504 13.4333C20.5246 13.4333 20.4277 13.5496 20.3438 13.6917C20.2533 13.8338 20.1629 13.95 20.1371 13.95C20.1048 13.95 20.0854 13.9888 20.0854 14.0404C20.0854 14.0921 20.066 14.1438 20.0402 14.1567C20.0079 14.1631 19.8723 14.3504 19.7302 14.5636C19.4525 14.9704 18.2577 16.6431 18.1479 16.7723C18.1156 16.8175 18.0833 16.8821 18.0833 16.9208C18.0833 16.9531 18.0575 16.9854 18.0252 16.9854C17.9929 16.9854 17.9477 17.0371 17.9283 17.0952C17.909 17.1598 17.825 17.2825 17.741 17.3729C17.6635 17.4633 17.5215 17.6506 17.4375 17.7927C17.3471 17.9348 17.2438 18.0963 17.1985 18.1479C17.0629 18.3158 16.0038 19.8077 15.6485 20.3308C15.4613 20.6021 15.2804 20.8604 15.2417 20.9056C15.2094 20.9508 15.1771 21.0154 15.1771 21.0542C15.1771 21.0865 15.1513 21.1188 15.119 21.1188C15.0867 21.1188 15.0415 21.1704 15.0221 21.2286C15.0027 21.2931 14.9188 21.4158 14.8348 21.5063C14.7573 21.5967 14.6088 21.7711 14.5119 21.9002L14.331 22.1392L14.5119 22.5138C14.6088 22.7269 14.7056 22.9077 14.725 22.9271C14.7444 22.9465 14.8154 23.0886 14.8865 23.25C14.951 23.4115 15.0415 23.5858 15.0802 23.6375C15.1254 23.6892 15.2158 23.8636 15.2804 24.0186C15.3515 24.18 15.5129 24.5223 15.6421 24.7871L15.8746 25.265L16.4429 24.5029C16.7529 24.0831 17.1598 23.5083 17.3535 23.2242C17.5473 22.9336 17.741 22.6558 17.7798 22.6042C17.825 22.5461 17.9606 22.3523 18.0833 22.165C18.206 21.9842 18.3288 21.8292 18.361 21.8292C18.3869 21.8292 18.4063 21.784 18.4063 21.7323C18.4063 21.6806 18.4321 21.6354 18.4579 21.6354C18.4838 21.6354 18.5935 21.4998 18.7033 21.3319C18.8067 21.1704 18.9229 21.0025 18.9552 20.9638C18.994 20.925 19.136 20.7183 19.2781 20.5052C19.53 20.1306 20.7313 18.4515 20.8604 18.2965C20.8992 18.2513 20.925 18.1996 20.925 18.1802C20.925 18.1544 20.9638 18.1027 21.009 18.0575C21.0477 18.0058 21.1317 17.9025 21.1833 17.825C21.235 17.7475 21.3383 17.6054 21.4094 17.515C21.4804 17.4246 21.5967 17.2567 21.6677 17.1404C21.8485 16.8498 22.2683 16.2556 22.9723 15.2933C23.3017 14.8348 23.6117 14.3956 23.6504 14.3052C23.6892 14.2148 23.7473 14.1438 23.7796 14.1438C23.8054 14.1438 23.8313 14.0986 23.8313 14.0469C23.8313 13.9952 23.8571 13.95 23.8894 13.95C23.9217 13.95 23.9669 13.8983 23.9863 13.8338C24.0121 13.7756 24.1413 13.5948 24.2833 13.4333C24.4254 13.2719 24.5417 13.104 24.5417 13.0588C24.5417 13.02 24.561 12.9813 24.5933 12.9813C24.6192 12.9813 24.7096 12.865 24.8 12.7229C24.8904 12.5808 24.9808 12.4646 25.0067 12.4646C25.039 12.4646 25.0583 12.4323 25.0583 12.3936C25.0583 12.3613 25.2133 12.1223 25.4006 11.864C25.5879 11.6056 25.8075 11.2892 25.8979 11.16L26.0594 10.9146H34.6877H43.316L43.7617 10.2946C44.0071 9.95877 44.2396 9.62939 44.2719 9.57127C44.3106 9.5196 44.5754 9.13856 44.8725 8.73168C45.1631 8.32481 45.4021 7.97606 45.4021 7.95022C45.4021 7.8921 19.8788 7.89856 18.9552 7.95668Z" fill="white"/>
<path d="M28.1325 12.3161C28.0098 12.4905 27.6288 13.0201 27.2929 13.498C26.9571 13.9759 26.6471 14.4021 26.6083 14.4473C26.576 14.4926 26.5438 14.5571 26.5438 14.5959C26.5438 14.6282 26.5244 14.6605 26.4985 14.6605C26.4663 14.6605 26.3758 14.7767 26.2854 14.9188C26.2015 15.0609 26.1046 15.1771 26.0788 15.1771C26.0529 15.1771 26.0271 15.2223 26.0271 15.274C26.0271 15.3257 25.9948 15.3709 25.9625 15.3709C25.9238 15.3709 25.8656 15.4419 25.8333 15.5388C25.7688 15.7067 25.3877 16.2234 25.3038 16.2621C25.2715 16.2751 25.2521 16.3138 25.2521 16.3461C25.2521 16.3848 25.0906 16.6303 24.8969 16.8886C24.7031 17.1534 24.5417 17.3988 24.5417 17.4376C24.5417 17.4698 24.5158 17.5021 24.49 17.5021C24.4383 17.5021 23.9152 18.2319 23.4438 18.9553C23.3081 19.1684 23.1402 19.4009 23.0692 19.4719C23.0046 19.543 22.8948 19.6915 22.8238 19.7948C22.7592 19.9046 22.4685 20.318 22.1844 20.7119C21.9002 21.1123 21.5385 21.629 21.3771 21.868C21.2156 22.1005 21.0542 22.3265 21.0154 22.3653C20.9831 22.4105 20.8475 22.6042 20.7183 22.798C20.5956 22.9917 20.3567 23.3276 20.1952 23.5407C20.0338 23.7538 19.8465 23.9992 19.7754 24.0896C19.7108 24.1801 19.601 24.3544 19.53 24.4771C19.4654 24.5998 19.3944 24.7161 19.375 24.7355C19.291 24.813 18.0963 26.4663 17.9865 26.6536C17.9154 26.7698 17.8379 26.8667 17.8121 26.8667C17.7863 26.8667 17.7604 26.899 17.7604 26.9313C17.7604 26.9701 17.6313 27.1832 17.4698 27.4092C17.3083 27.6417 17.1792 27.8484 17.1792 27.8678C17.1792 27.8871 17.2696 28.0938 17.3729 28.3198C17.4827 28.5459 17.5667 28.7526 17.5667 28.7784C17.5667 28.8042 17.67 29.0432 17.7992 29.3144C17.9283 29.5857 18.1544 30.0636 18.3094 30.3865C18.4579 30.703 18.6065 31.0259 18.6323 31.0969C18.671 31.2132 18.6969 31.2003 18.8971 30.9678C19.0133 30.8257 19.1296 30.6578 19.1554 30.5932C19.1748 30.5351 19.22 30.4834 19.2523 30.4834C19.2846 30.4834 19.3104 30.4382 19.3104 30.3865C19.3104 30.3348 19.3363 30.2896 19.3685 30.2896C19.4008 30.2896 19.459 30.1992 19.5042 30.0959C19.5494 29.9861 19.6075 29.9021 19.6398 29.9021C19.6721 29.9021 19.6979 29.8634 19.6979 29.8117C19.6979 29.7601 19.7431 29.7084 19.7948 29.6826C19.8465 29.6632 19.8917 29.6115 19.8917 29.5663C19.8917 29.5211 19.9627 29.4048 20.0531 29.308C20.1435 29.2111 20.2146 29.1142 20.2146 29.0948C20.2146 29.0755 20.2469 29.0238 20.2792 28.9786C20.389 28.8494 21.5838 27.1767 21.8615 26.7698C22.0035 26.5567 22.1392 26.3694 22.1715 26.363C22.1973 26.3501 22.2167 26.3113 22.2167 26.279C22.2167 26.2403 22.2425 26.1821 22.2813 26.1369C22.6042 25.7494 22.8044 25.4782 23.024 25.1488C23.166 24.9421 23.2952 24.7548 23.3146 24.7355C23.334 24.7161 23.4631 24.5288 23.6052 24.3157C23.8377 23.954 25.1681 22.0876 25.3167 21.9132C25.349 21.868 25.3813 21.8034 25.3813 21.7646C25.3813 21.7323 25.4071 21.7001 25.4394 21.7001C25.4717 21.7001 25.6654 21.4353 25.8721 21.1188C26.0788 20.7959 26.2725 20.5376 26.2983 20.5376C26.3242 20.5376 26.35 20.5117 26.35 20.473C26.35 20.4407 26.6471 19.9951 27.0152 19.4913C27.3833 18.9811 27.7967 18.3934 27.9388 18.1803C28.1906 17.7928 28.2552 17.6959 28.3908 17.5473C28.5265 17.3859 28.9979 16.7336 28.9979 16.7013C28.9979 16.6819 29.0431 16.6109 29.0948 16.5528C29.1788 16.4494 29.3531 16.204 30.1281 15.0932L30.296 14.8542H30.9419C31.2906 14.8542 31.5813 14.8736 31.5813 14.8994C31.5813 14.9705 31.2971 15.3709 31.2454 15.3709C31.2131 15.3709 31.1938 15.4032 31.1938 15.4355C31.1938 15.4742 30.9871 15.7778 30.7417 16.1201C30.4898 16.4559 30.1798 16.9015 30.0506 17.1017C29.9215 17.3019 29.7988 17.4828 29.7729 17.5021C29.6825 17.5732 29.1917 18.2771 29.1917 18.3417C29.1917 18.374 29.1658 18.4063 29.14 18.4063C29.1142 18.4063 29.0044 18.5419 28.8946 18.7098C28.7913 18.8713 28.6815 19.0392 28.6427 19.078C28.4877 19.2459 28.1713 19.6786 28.0615 19.8723C27.9904 19.9886 27.9129 20.0855 27.8935 20.0855C27.8677 20.0855 27.8225 20.1436 27.8031 20.2211C27.7773 20.2921 27.3252 20.9509 26.7892 21.6807C26.2596 22.4105 25.8075 23.0498 25.7881 23.108C25.7623 23.1596 25.6977 23.2565 25.646 23.3211C25.5879 23.3792 25.4717 23.5342 25.3813 23.6698C25.2908 23.799 25.181 23.9411 25.1423 23.9928C25.0971 24.038 25.0583 24.109 25.0583 24.1478C25.0583 24.1865 25.0325 24.2188 25.0067 24.2188C24.9744 24.2188 24.9163 24.2834 24.884 24.3609C24.8452 24.4448 24.5417 24.8776 24.2123 25.3296C23.8765 25.7817 23.405 26.4469 23.1531 26.8021C22.9077 27.1638 22.6494 27.519 22.5913 27.5836C22.5331 27.6546 22.3717 27.8807 22.236 28.0809C22.1004 28.2811 21.9713 28.4555 21.9454 28.4684C21.9131 28.4813 21.8938 28.533 21.8938 28.5846C21.8938 28.6363 21.8679 28.6751 21.8421 28.6751C21.8098 28.6751 21.7258 28.7848 21.6483 28.914C21.5773 29.0496 21.319 29.4178 21.0865 29.7407C19.9175 31.323 19.3169 32.1948 19.3104 32.2853C19.3104 32.3886 19.4913 32.7761 19.9756 33.7448C20.531 34.8428 20.6021 35.0042 20.6021 35.0688C20.6021 35.2432 20.8152 35.0946 21.0348 34.7717C21.1704 34.5715 21.319 34.3713 21.3642 34.3261C21.4029 34.2744 21.4417 34.2098 21.4417 34.1711C21.4417 34.1323 21.4675 34.1001 21.4933 34.1001C21.5192 34.1001 21.7323 33.8159 21.9648 33.4736C22.1908 33.1313 22.4104 32.8213 22.4427 32.7826C22.4815 32.7438 22.6171 32.5501 22.7527 32.3563C22.9917 32.0011 23.2952 31.5878 23.476 31.3682C23.5277 31.3101 23.5729 31.239 23.5729 31.2196C23.5729 31.1809 24.2252 30.2121 24.2898 30.1605C24.3608 30.1023 25.0583 29.1336 25.0583 29.0948C25.0583 29.0755 25.1165 28.9915 25.194 28.914C25.265 28.8365 25.4394 28.5976 25.5815 28.3844C25.8204 28.0228 26.2144 27.448 26.3952 27.2026C26.8408 26.6084 28.4877 24.2705 28.6879 23.954C28.746 23.8636 28.8365 23.7473 28.8817 23.6957C29.0431 23.5342 29.5146 22.869 29.5146 22.8044C29.5146 22.7721 29.5404 22.7334 29.5727 22.7205C29.5985 22.7076 29.76 22.4944 29.9215 22.249C30.0829 21.9971 30.2702 21.7259 30.3413 21.6355C30.619 21.2996 31.5167 20.0144 31.5167 19.9628C31.5167 19.9305 31.5425 19.8917 31.5683 19.8788C31.62 19.8594 32.4208 18.7551 32.705 18.3094C32.776 18.2061 32.8535 18.0898 32.8858 18.0511C32.9117 18.0188 33.0731 17.7992 33.241 17.5667C33.409 17.3342 33.564 17.134 33.5833 17.1146C33.6027 17.0953 33.7319 16.908 33.874 16.6948C34.0096 16.4817 34.3583 15.978 34.649 15.584L35.1656 14.8607L35.8308 14.8542C36.1925 14.8542 36.4896 14.8801 36.4896 14.9059C36.4896 14.9511 36.0892 15.5323 35.9083 15.739C35.876 15.7842 35.8438 15.8359 35.8438 15.8488C35.8438 15.8682 35.4498 16.4236 34.9654 17.0888C34.4875 17.7476 34.0613 18.3546 34.0225 18.4451C33.9838 18.529 33.9256 18.6001 33.8933 18.6001C33.8675 18.6001 33.8417 18.6453 33.8417 18.6969C33.8417 18.7486 33.8223 18.7938 33.79 18.7938C33.7642 18.7938 33.6931 18.8907 33.6285 19.0005C33.564 19.1167 33.4219 19.3169 33.3121 19.4396C33.2023 19.5623 33.0408 19.7819 32.944 19.924C32.8535 20.0661 32.7631 20.1953 32.7438 20.2146C32.7179 20.234 32.6081 20.389 32.4854 20.5698C31.93 21.3965 30.8773 22.8819 30.7417 23.0369C30.7094 23.0821 30.6771 23.1403 30.6771 23.179C30.6771 23.2113 30.6577 23.2501 30.6319 23.263C30.5415 23.3017 29.9667 24.0767 29.9021 24.2446C29.8698 24.3351 29.8181 24.4126 29.7923 24.4126C29.76 24.4126 29.6825 24.5159 29.6179 24.6386C29.5469 24.7613 29.4694 24.8646 29.4371 24.8646C29.4113 24.8646 29.3854 24.8905 29.3854 24.9292C29.3854 25.0067 28.8171 25.7946 28.7331 25.8205C28.7008 25.8334 28.675 25.8721 28.675 25.9044C28.675 25.9432 28.52 26.1757 28.3327 26.434C28.1454 26.6923 27.8548 27.0992 27.6869 27.3511C27.519 27.5965 27.2219 28.0228 27.0281 28.2876C26.8279 28.5523 26.6342 28.8301 26.589 28.8946C26.5502 28.9592 26.3435 29.2434 26.1433 29.5276C25.9367 29.8053 25.7688 30.0507 25.7688 30.0636C25.7688 30.083 25.7365 30.1346 25.7042 30.1798C25.5621 30.3478 23.6633 33.0086 23.4954 33.2734C23.3985 33.4284 23.2758 33.6092 23.2242 33.6803C23.166 33.7513 23.0369 33.9257 22.9271 34.0678C22.8238 34.2098 22.714 34.3519 22.6817 34.3907C22.6558 34.423 22.475 34.6878 22.2748 34.9719C22.081 35.2561 21.784 35.6823 21.616 35.9213C21.4481 36.1603 21.3125 36.3798 21.3125 36.4186C21.3125 36.4509 21.3835 36.6188 21.4675 36.7932C21.5515 36.9611 21.7323 37.3357 21.8744 37.6198C22.01 37.904 22.1327 38.1494 22.1521 38.1688C22.1779 38.1882 22.3458 38.5176 22.5396 38.8986C22.7269 39.2861 22.9077 39.609 22.9335 39.6219C22.9723 39.6542 23.3081 39.1957 23.6633 38.6273C23.8248 38.369 24.1865 37.8717 24.2833 37.7813C24.3027 37.7619 24.3479 37.6973 24.3802 37.6392C24.5869 37.2776 25.0067 36.7351 25.3167 36.4186C25.5104 36.2248 25.7171 35.9794 25.7688 35.8696C25.8204 35.7663 25.8979 35.6436 25.9431 35.5984C25.9883 35.5532 26.0723 35.4305 26.1369 35.3271C26.195 35.2173 26.2725 35.1334 26.2983 35.1334C26.3242 35.1334 26.35 35.1011 26.35 35.0623C26.35 35.0042 27.0152 34.0613 27.1185 33.9709C27.1508 33.9451 27.4867 33.4607 27.7708 33.028C28.0033 32.6728 28.3908 32.1238 28.4554 32.0592C28.4942 32.014 28.675 31.7686 28.8558 31.5038C29.2885 30.8967 29.9408 29.9603 30.0313 29.8376C30.0635 29.7859 30.4317 29.2757 30.8385 28.7073C31.691 27.5255 32.2013 26.7763 32.466 26.3048C32.5629 26.124 32.7115 25.8915 32.7954 25.7882C33.0667 25.4459 34.0483 24.0573 34.0871 23.9605C34.1065 23.9088 34.1775 23.8055 34.2485 23.7344C34.3131 23.6634 34.4294 23.5019 34.5069 23.3792C34.5779 23.2565 34.6619 23.1403 34.6813 23.1209C34.7006 23.1015 34.946 22.7592 35.2302 22.3588C35.5079 21.9519 35.7985 21.5773 35.876 21.5192C35.9535 21.4611 36.0698 21.319 36.1408 21.2157C36.2054 21.1059 36.6704 20.4536 37.1742 19.7626C37.6779 19.0715 38.13 18.4128 38.1881 18.3094C38.2398 18.1996 38.3496 18.0511 38.4206 17.9736C38.4981 17.8961 38.5563 17.8057 38.5563 17.7734C38.5563 17.7411 38.6015 17.6701 38.6596 17.6248C38.7177 17.5796 38.8598 17.3923 38.976 17.2115C39.1956 16.8821 39.8027 16.0232 40.6035 14.9253C40.8425 14.5894 41.1525 14.1567 41.2881 13.9565C41.611 13.4851 41.7402 13.3042 41.8177 13.2138C41.9533 13.0717 42.5604 12.1288 42.5604 12.0707C42.5604 12.0384 39.7188 12.0126 35.4563 12.0126H28.3521L28.1325 12.3161Z" fill="white"/>
<path d="M35.9083 22.5784C35.65 23.0111 34.9331 23.9863 34.8621 24.0122C34.8362 24.0251 34.8104 24.0638 34.8104 24.1026C34.8104 24.1349 34.7717 24.1995 34.7329 24.2511C34.6877 24.2963 34.5198 24.5288 34.3583 24.7678C34.1969 25.0003 33.8998 25.4265 33.6996 25.7107C33.4929 25.9884 33.325 26.2403 33.325 26.2597C33.325 26.2726 33.2669 26.3501 33.1958 26.4276C33.0731 26.5632 33.0667 26.6601 33.0667 30.1347V33.6932L32.5823 34.3649C32.3175 34.733 32.0785 35.0624 32.0527 35.1011C32.0204 35.1334 31.9623 35.2432 31.9106 35.3401C31.8202 35.5145 31.226 36.1603 30.9354 36.3928C30.761 36.5349 30.2444 36.8513 29.9344 37.0128C29.534 37.2195 28.4167 37.4584 27.8354 37.4584C27.506 37.4584 26.434 37.3034 25.7235 37.1549C25.6202 37.129 25.5427 37.1872 25.3877 37.4003C25.2779 37.5553 25.1617 37.7167 25.1229 37.762C25.0906 37.8072 25.0583 37.8653 25.0583 37.904C25.0583 37.9363 25.0325 37.9751 25.0002 37.988C24.9744 37.9945 24.7354 38.3109 24.4771 38.6855C24.2187 39.0601 23.9217 39.467 23.8183 39.5961C23.7215 39.7253 23.6375 39.8609 23.6375 39.8932C23.6375 40.0805 26.3177 40.5584 27.3575 40.5584C27.9452 40.5584 28.9721 40.4292 29.4823 40.2872C30.2444 40.0805 30.2702 40.074 30.9031 39.777C31.155 39.6672 31.4456 39.4992 31.5619 39.4217C31.6717 39.3378 31.7944 39.2667 31.8267 39.2667C31.8654 39.2667 31.9042 39.2474 31.9171 39.2151C31.93 39.1892 32.0656 39.0665 32.2271 38.9438C32.7631 38.537 33.5317 37.7813 33.7642 37.4455C33.8223 37.3615 33.9192 37.2453 33.9773 37.1807C34.0354 37.1161 34.1387 36.9676 34.2033 36.8449C34.2679 36.7222 34.3454 36.6188 34.3712 36.6188C34.4035 36.6188 34.4229 36.5865 34.4229 36.5542C34.4229 36.5155 34.4552 36.4509 34.4875 36.4057C34.5262 36.3605 34.6619 36.1797 34.7975 36.0053C34.9267 35.8245 35.0558 35.6759 35.0881 35.663C35.114 35.6501 35.1333 35.6113 35.1333 35.579C35.1333 35.5274 35.495 34.9978 36.4702 33.6545C36.7092 33.3186 36.961 32.957 37.0321 32.8472C37.0967 32.7374 37.1677 32.634 37.1935 32.6147C37.2194 32.5953 37.3615 32.4015 37.51 32.1755C37.6585 31.9559 37.8329 31.717 37.8975 31.6524C37.9879 31.549 38.511 30.774 38.7177 30.4317C38.7565 30.3736 38.7952 30.309 38.8146 30.2897C38.9373 30.1734 39.9254 28.7978 40.3581 28.1261C40.5002 27.913 40.6746 27.674 40.7456 27.5965C40.8231 27.519 40.8812 27.4351 40.8812 27.4157C40.8812 27.3963 41.1137 27.0605 41.3979 26.673C41.6821 26.2855 41.9146 25.9497 41.9146 25.9367C41.9146 25.9174 41.9856 25.827 42.076 25.7301C42.1665 25.6332 42.3279 25.4007 42.4312 25.2199C42.5346 25.039 42.6702 24.8324 42.7348 24.7549C42.7994 24.6774 42.8962 24.5547 42.9479 24.4707C42.9996 24.3932 43.174 24.1478 43.3354 23.9347C43.4969 23.7151 43.7681 23.347 43.936 23.1015L44.246 22.6688H42.5087C40.9329 22.6688 40.765 22.6817 40.6746 22.7786C40.6229 22.8432 40.4485 23.0822 40.2871 23.3147C40.1256 23.5472 39.8285 23.967 39.6283 24.2511C39.4281 24.5353 39.2279 24.8195 39.1827 24.884C38.9437 25.2457 38.5304 25.8011 38.4787 25.8205C38.4529 25.8334 38.4271 25.8786 38.4271 25.9238C38.4271 25.969 38.369 26.0595 38.2979 26.124C38.2269 26.1886 38.1687 26.2661 38.1687 26.2984C38.1687 26.3436 36.6833 28.4297 36.4896 28.6557C36.4573 28.7009 36.425 28.7655 36.425 28.8042C36.425 28.8365 36.3798 28.8688 36.3281 28.8688C36.2442 28.8688 36.2312 28.4555 36.2312 25.5428C36.2312 23.7151 36.2119 22.2167 36.186 22.2167C36.1537 22.2167 36.031 22.3847 35.9083 22.5784Z" fill="white"/>
</svg>
