<svg width="316" height="211" viewBox="0 0 316 211" fill="none" xmlns="http://www.w3.org/2000/svg">
<path d="M153.721 3.75268C150.232 4.50977 148.191 5.82643 146.71 8.22935C146.348 8.85476 145.92 9.44727 145.821 9.54601C145.723 9.64476 144.9 10.8298 144.011 12.1793C143.089 13.5289 142.299 14.7139 142.2 14.8127C142.102 14.9114 140.423 17.4131 138.415 20.4085C136.44 23.371 134.465 26.1689 134.07 26.6298C133.675 27.0577 132.819 28.3743 132.128 29.5264C131.47 30.6456 130.778 31.6002 130.647 31.6002C130.482 31.6002 130.35 31.7977 130.35 32.061C130.35 32.2914 130.12 32.6864 129.857 32.9168C129.593 33.1473 129.363 33.4435 129.363 33.6081C129.363 34.036 147.335 33.9702 150.265 33.5423C151.615 33.3448 152.734 33.0485 152.734 32.9168C152.734 32.7852 153.063 32.5877 153.491 32.456C154.38 32.2256 156.914 29.8227 157.178 28.9339C157.309 28.6048 157.54 28.3085 157.704 28.3085C157.869 28.3085 158 28.111 158 27.8806C158 27.6502 158.363 27.0906 158.823 26.5968C159.284 26.1031 159.646 25.5764 159.646 25.3789C159.646 25.2143 159.778 25.0168 159.91 24.951C160.041 24.8852 160.93 23.6673 161.852 22.2189C162.773 20.7706 163.761 19.3223 164.024 19.026C164.32 18.7298 164.452 18.4006 164.353 18.3018C164.222 18.2031 162.609 18.1043 160.733 18.1043C157.342 18.1043 156.157 17.6435 159.218 17.5118C161.621 17.4131 162.609 17.1498 164.485 16.2281C166.263 15.3723 166.822 14.8127 169.291 11.3564C170.937 9.05227 174.459 3.65393 174.459 3.45643C174.459 3.09435 155.466 3.3906 153.721 3.75268ZM159.58 9.77643C159.646 10.2043 159.548 10.5335 159.35 10.5335C159.153 10.5335 158.988 10.731 158.988 10.9943C158.988 11.2248 158.363 12.1135 157.605 12.9364C156.19 14.4177 154.05 15.2735 153.392 14.6152C153.195 14.4177 153.82 13.1668 154.808 11.5868L156.519 8.88768L158 8.95351C159.251 9.05227 159.482 9.15101 159.58 9.77643ZM150.956 21.8898C151.187 22.4493 149.343 25.6752 148.224 26.7285C147.763 27.1564 146.875 27.4856 145.821 27.5843C144.143 27.7489 143.78 27.4527 144.603 26.5968C145.097 26.0373 147.138 23.0748 147.138 22.8773C147.138 22.7785 147.401 22.4164 147.698 22.0543C148.389 21.2314 150.66 21.1327 150.956 21.8898Z" fill="white"/>
<path d="M182.293 3.78553C179.001 4.50969 177.553 5.43136 175.643 8.03178C174.689 9.31553 173.57 10.9943 173.142 11.7514C172.714 12.5414 172.253 13.1668 172.088 13.1668C171.957 13.1668 171.825 13.3972 171.825 13.6605C171.825 13.9239 171.496 14.4505 171.101 14.8784C170.673 15.3064 169.653 16.6889 168.797 18.0055C167.941 19.2893 166.427 21.5276 165.406 22.943C164.419 24.3584 163.431 25.7409 163.267 26.0043C163.102 26.2676 162.444 27.288 161.785 28.2755C161.16 29.2301 160.633 30.1518 160.633 30.3164C160.633 30.4809 160.502 30.6126 160.37 30.6126C160.14 30.6126 158.461 33.0155 158.263 33.6739C158.198 33.8384 162.312 33.9372 167.381 33.9372C176.203 33.9043 181.7 33.5093 181.7 32.8839C181.7 32.7193 181.898 32.5876 182.161 32.5876C182.918 32.5876 184.761 30.6455 186.868 27.6501C189.666 23.7001 192.497 19.5526 193.748 17.6105C194.834 15.9647 197.27 12.4426 201.285 6.68219C202.47 5.00344 203.425 3.58803 203.425 3.45636C203.425 3.09428 184.169 3.39053 182.293 3.78553ZM187.428 10.3689C188.02 10.7968 187.987 10.8955 186.835 12.5084C186.177 13.3972 185.65 14.2201 185.65 14.3189C185.65 14.4176 185.288 14.9114 184.827 15.3722C184.399 15.8659 183.873 16.6889 183.642 17.1826C183.445 17.6764 183.148 18.1043 182.984 18.1043C182.819 18.1043 182.688 18.2689 182.688 18.4334C182.688 18.6309 181.667 20.2109 180.383 21.9884C179.133 23.733 177.915 25.4447 177.684 25.7739C177.19 26.4322 174.886 26.8601 174.195 26.3993C173.833 26.1689 174.261 25.3459 175.973 22.8443C177.223 21.0668 178.869 18.598 179.692 17.3472C180.482 16.1293 181.272 15.1418 181.437 15.1418C181.568 15.1418 181.7 14.9114 181.7 14.648C181.7 14.3847 181.832 14.1543 181.963 14.1543C182.128 14.1543 182.655 13.3972 183.148 12.5084C184.333 10.303 186.144 9.41428 187.428 10.3689Z" fill="white"/>
<path d="M212.148 3.71987C209.745 4.18071 207.145 5.56321 206.092 6.91279C205.598 7.53821 204.149 9.61196 202.932 11.5211C201.681 13.4303 200.496 15.142 200.298 15.3724C199.772 15.8661 195.492 22.1203 194.867 23.2724C193.748 25.3132 190.522 29.5924 189.732 30.119C189.238 30.4153 188.349 30.7445 187.724 30.7774C186.605 30.909 186.21 31.2382 185.157 32.9828L184.63 33.9045H188.547C196.052 33.9045 198.488 32.9828 201.384 29.1315C202.306 27.9136 208.231 18.8286 208.429 18.3678C208.56 18.0386 208.824 17.7753 209.021 17.7753C209.186 17.7753 209.35 17.5778 209.383 17.3474C209.383 17.1499 210.305 15.7015 211.457 14.1545C213.333 11.587 213.597 11.3565 214.749 11.2578C215.44 11.192 216.23 11.2249 216.493 11.3565C216.954 11.5211 216.954 11.587 216.526 12.1136C216.23 12.4099 215.934 12.9695 215.802 13.3315C215.703 13.6936 215.275 14.352 214.847 14.8128C214.419 15.2736 213.794 16.1624 213.432 16.7878C213.103 17.4132 212.642 18.1045 212.444 18.302C212.247 18.5324 211.589 19.487 210.963 20.4745C210.371 21.429 209.745 22.252 209.614 22.3178C209.449 22.3836 209.35 22.5811 209.35 22.7786C209.35 22.9432 209.153 23.3053 208.955 23.5357C208.297 24.2599 202.109 33.4765 202.109 33.7399C202.109 34.0361 206.914 33.9045 208.725 33.5753C212.214 32.917 214.255 31.4357 216.394 28.0453C216.954 27.1236 218.007 25.5107 218.764 24.4574C220.772 21.5607 223.801 17.1499 225.052 15.3065C225.644 14.3849 226.302 13.4961 226.467 13.2657C226.664 13.0353 226.796 12.739 226.796 12.5415C226.796 12.377 226.895 12.1795 227.059 12.1136C227.191 12.0478 227.882 11.1261 228.607 10.0399C229.331 8.95362 230.022 7.99904 230.187 7.96612C230.318 7.90029 230.417 7.63696 230.417 7.40654C230.417 7.17612 230.516 6.91279 230.68 6.84696C230.944 6.71529 233.05 3.75279 233.05 3.48946C233.05 3.16029 213.893 3.35779 212.148 3.71987Z" fill="white"/>
<path d="M241.773 3.62082C241.411 3.7854 240.752 3.91707 240.325 3.91707C239.205 3.94999 236.309 5.39832 235.486 6.31999C235.091 6.71499 234.301 7.80124 233.708 8.7229C233.083 9.61165 232.49 10.4017 232.326 10.4675C232.194 10.5333 232.062 10.7967 232.062 11.06C232.062 11.3233 231.931 11.5208 231.733 11.5208C231.569 11.5208 231.404 11.6854 231.404 11.85C231.404 12.0475 230.845 12.9692 230.153 13.9237C229.429 14.8783 227.487 17.7092 225.808 20.2437C224.097 22.7783 222.648 24.9179 222.55 25.0167C222.451 25.1154 222.22 25.4117 222.023 25.7408C221.858 26.0371 220.542 27.9462 219.126 30.02L216.559 33.7396L218.632 33.8383C221.628 34.0029 225.347 33.3446 226.927 32.3571C228.573 31.3367 228.968 30.9087 230.417 28.8021C231.042 27.8804 231.7 26.9917 231.898 26.7612C232.82 25.675 233.05 25.3458 233.05 25.1812C233.05 25.0825 233.642 24.1937 234.367 23.2062C235.091 22.2187 235.683 21.2642 235.683 21.0667C235.683 20.9021 235.815 20.7375 235.98 20.7375C236.144 20.7375 236.506 20.2437 236.802 19.6512C237.395 18.4662 238.053 17.38 238.317 17.1167C238.876 16.5571 241.279 13.1337 241.279 12.9033C241.279 12.7387 241.575 12.3437 241.937 12.0146C242.53 11.4879 243.254 11.3892 247.303 11.3562C251.977 11.2904 252.833 11.1258 254.907 9.77624C256.618 8.68999 261.358 4.14749 261.358 3.62082C261.358 3.22582 242.695 3.22582 241.773 3.62082Z" fill="white"/>
<path d="M96.6106 40.5534C94.6356 40.685 92.6277 40.8496 92.1668 40.9154C90.5539 41.2117 85.0898 42.8575 84.7935 43.1538C84.596 43.3184 84.2339 43.45 83.9377 43.45C83.3452 43.45 78.4406 45.9188 77.6506 46.61C77.3873 46.8734 76.9923 47.0709 76.8277 47.0709C75.9718 47.0709 69.2239 53.5554 67.6439 55.8925C64.7473 60.1059 62.9698 64.1546 61.5873 69.6188C60.9948 71.9229 60.7643 80.6129 61.1923 83.6084C62.2127 90.5538 63.3318 94.1746 66.7881 101.416C67.7098 103.358 68.4668 105.103 68.4668 105.3C68.4668 105.498 68.5985 105.663 68.796 105.663C68.9606 105.663 69.191 106.025 69.3227 106.485C69.4214 106.946 69.6518 107.308 69.8164 107.308C69.981 107.308 70.1127 107.506 70.1127 107.736C70.1127 108.395 71.3964 109.481 71.6927 109.086C72.6143 108.033 73.7335 106.321 73.7335 106.025C73.7335 105.827 73.8323 105.663 73.9968 105.663C74.1285 105.63 75.0831 104.412 76.1364 102.93C77.1898 101.449 78.8685 99.1121 79.8231 97.7625C81.1398 95.9192 81.5018 95.195 81.2714 94.8C81.1068 94.5367 80.6789 93.8454 80.3168 93.3188C79.3293 91.7717 78.0127 88.8421 78.0127 88.2496C78.0127 87.9534 77.881 87.5584 77.7164 87.3938C77.5518 87.1963 77.1898 85.9784 76.8606 84.6617C76.3998 82.7854 76.3339 81.3042 76.4327 77.42C76.5643 73.2067 76.7289 72.2521 77.5189 69.9479C78.0127 68.4996 78.671 66.8538 78.9673 66.3271C81.2056 62.1467 85.2214 58.46 88.7106 57.2421C89.4348 57.0117 90.2248 56.6496 90.4881 56.4521C91.0148 56.0571 113.234 55.7609 113.234 56.1559C113.234 56.2875 113.036 56.6496 112.773 56.9129C112.542 57.2092 111.489 58.6904 110.436 60.2375C106.189 66.4917 105.564 67.3146 105.301 67.4134C105.136 67.4792 105.004 67.7425 105.004 68.0059C105.004 68.2692 104.873 68.4667 104.741 68.4667C104.609 68.4667 104.116 69.0592 103.688 69.7834C103.227 70.5075 102.766 71.1 102.634 71.1C102.47 71.1 102.371 71.2975 102.371 71.5609C102.371 71.8242 102.272 72.0875 102.141 72.1534C101.976 72.1863 101.285 73.1409 100.561 74.2271C99.1452 76.3009 93.0556 84.8263 92.496 85.4846C92.3314 85.715 92.1668 86.0442 92.1668 86.2417C92.1668 86.4063 92.0352 86.5709 91.8706 86.5709C91.706 86.5709 91.4756 86.8342 91.3768 87.1304C91.2781 87.4596 90.8502 88.085 90.4223 88.5459C90.0273 89.0067 89.3031 89.9613 88.8752 90.6854C88.4143 91.4096 87.8877 92.2325 87.6573 92.4959C86.966 93.3517 81.5677 100.955 79.7573 103.622C78.8027 105.004 77.881 106.321 77.6835 106.551C77.5189 106.782 77.3543 107.111 77.3543 107.308C77.3543 107.473 77.2227 107.638 77.0581 107.638C76.8935 107.638 76.6631 107.901 76.5643 108.197C76.4656 108.526 76.0377 109.152 75.6098 109.613C75.2148 110.073 74.4577 110.962 73.9639 111.62L73.0423 112.838L73.9639 114.748C74.4577 115.834 74.9514 116.755 75.0502 116.854C75.1489 116.953 75.511 117.677 75.8731 118.5C76.2023 119.323 76.6631 120.212 76.8606 120.475C77.091 120.738 77.5518 121.627 77.881 122.417C78.2431 123.24 79.066 124.985 79.7243 126.334L80.9093 128.77L83.806 124.886C85.386 122.746 87.4598 119.817 88.4473 118.368C89.4348 116.887 90.4223 115.472 90.6198 115.208C90.8502 114.912 91.5414 113.925 92.1668 112.97C92.7923 112.048 93.4177 111.258 93.5823 111.258C93.7139 111.258 93.8127 111.028 93.8127 110.765C93.8127 110.501 93.9443 110.271 94.076 110.271C94.2077 110.271 94.7673 109.58 95.3269 108.724C95.8535 107.901 96.446 107.045 96.6106 106.848C96.8081 106.65 97.5323 105.597 98.2564 104.51C99.5402 102.601 105.663 94.0429 106.321 93.2529C106.519 93.0225 106.65 92.7592 106.65 92.6604C106.65 92.5288 106.848 92.2654 107.078 92.035C107.276 91.7717 107.704 91.245 107.967 90.85C108.23 90.455 108.757 89.7309 109.119 89.27C109.481 88.8092 110.074 87.9534 110.436 87.3609C111.357 85.8796 113.497 82.8513 117.085 77.9467C118.764 75.6096 120.344 73.3713 120.541 72.9104C120.739 72.4496 121.035 72.0875 121.199 72.0875C121.331 72.0875 121.463 71.8571 121.463 71.5938C121.463 71.3304 121.594 71.1 121.759 71.1C121.924 71.1 122.154 70.8367 122.253 70.5075C122.384 70.2113 123.043 69.2896 123.767 68.4667C124.491 67.6438 125.084 66.7879 125.084 66.5575C125.084 66.36 125.182 66.1625 125.347 66.1625C125.479 66.1625 125.939 65.57 126.4 64.8459C126.861 64.1217 127.322 63.5292 127.454 63.5292C127.618 63.5292 127.717 63.3646 127.717 63.1671C127.717 63.0025 128.507 61.7846 129.461 60.4679C130.416 59.1513 131.535 57.5384 131.996 56.88L132.819 55.6292H176.796H220.772L223.044 52.4692C224.294 50.7575 225.479 49.0788 225.644 48.7825C225.841 48.5192 227.191 46.5771 228.705 44.5034C230.186 42.4296 231.404 40.6521 231.404 40.5204C231.404 40.2242 101.318 40.2571 96.6106 40.5534Z" fill="white"/>
<path d="M143.385 62.7724C142.76 63.6611 140.818 66.3603 139.106 68.7961C137.394 71.2319 135.814 73.4044 135.617 73.6349C135.452 73.8653 135.288 74.1944 135.288 74.3919C135.288 74.5565 135.189 74.7211 135.057 74.7211C134.893 74.7211 134.432 75.3136 133.971 76.0378C133.543 76.7619 133.049 77.3544 132.918 77.3544C132.786 77.3544 132.654 77.5849 132.654 77.8482C132.654 78.1115 132.49 78.3419 132.325 78.3419C132.128 78.3419 131.831 78.704 131.667 79.1978C131.338 80.0536 129.396 82.6869 128.968 82.8844C128.803 82.9503 128.704 83.1478 128.704 83.3124C128.704 83.5099 127.881 84.7607 126.894 86.0774C125.906 87.4269 125.083 88.6778 125.083 88.8753C125.083 89.0399 124.952 89.2044 124.82 89.2044C124.557 89.2044 121.891 92.924 119.488 96.6107C118.796 97.6969 117.941 98.8819 117.578 99.244C117.249 99.6061 116.69 100.363 116.328 100.89C115.998 101.449 114.517 103.556 113.069 105.564C111.621 107.605 109.777 110.238 108.954 111.456C108.131 112.641 107.308 113.793 107.111 113.991C106.946 114.221 106.255 115.209 105.597 116.196C104.971 117.184 103.753 118.895 102.931 119.982C102.108 121.068 101.153 122.319 100.791 122.779C100.462 123.24 99.9022 124.129 99.5401 124.754C99.211 125.38 98.8489 125.972 98.7501 126.071C98.3222 126.466 92.2326 134.893 91.6731 135.847C91.311 136.44 90.916 136.934 90.7843 136.934C90.6526 136.934 90.521 137.098 90.521 137.263C90.521 137.46 89.8626 138.547 89.0397 139.699C88.2168 140.884 87.5585 141.937 87.5585 142.036C87.5585 142.134 88.0193 143.188 88.546 144.34C89.1056 145.492 89.5335 146.545 89.5335 146.677C89.5335 146.809 90.0601 148.027 90.7185 149.409C91.3768 150.792 92.5289 153.227 93.3189 154.873C94.076 156.486 94.8331 158.132 94.9647 158.494C95.1622 159.087 95.2939 159.021 96.3143 157.836C96.9068 157.112 97.4993 156.256 97.631 155.927C97.7297 155.63 97.9601 155.367 98.1247 155.367C98.2893 155.367 98.421 155.137 98.421 154.873C98.421 154.61 98.5526 154.379 98.7172 154.379C98.8818 154.379 99.1781 153.919 99.4085 153.392C99.6389 152.832 99.9351 152.404 100.1 152.404C100.264 152.404 100.396 152.207 100.396 151.944C100.396 151.68 100.626 151.417 100.89 151.285C101.153 151.187 101.383 150.923 101.383 150.693C101.383 150.462 101.746 149.87 102.206 149.376C102.667 148.882 103.029 148.389 103.029 148.29C103.029 148.191 103.194 147.928 103.358 147.697C103.918 147.039 110.008 138.514 111.423 136.44C112.147 135.354 112.838 134.399 113.003 134.366C113.135 134.3 113.233 134.103 113.233 133.938C113.233 133.741 113.365 133.444 113.563 133.214C115.208 131.239 116.229 129.857 117.348 128.178C118.072 127.124 118.731 126.17 118.829 126.071C118.928 125.972 119.586 125.018 120.311 123.932C121.496 122.088 128.276 112.575 129.033 111.687C129.198 111.456 129.363 111.127 129.363 110.929C129.363 110.765 129.494 110.6 129.659 110.6C129.823 110.6 130.811 109.251 131.864 107.638C132.918 105.992 133.905 104.675 134.037 104.675C134.168 104.675 134.3 104.544 134.3 104.346C134.3 104.182 135.814 101.91 137.691 99.3428C139.567 96.7424 141.673 93.7469 142.398 92.6607C143.681 90.6857 144.011 90.1919 144.702 89.4349C145.393 88.6119 147.796 85.2874 147.796 85.1228C147.796 85.024 148.026 84.6619 148.29 84.3657C148.718 83.839 149.606 82.5882 153.556 76.9265L154.412 75.7086H157.704C159.481 75.7086 160.963 75.8074 160.963 75.939C160.963 76.3011 159.514 78.3419 159.251 78.3419C159.086 78.3419 158.988 78.5065 158.988 78.6711C158.988 78.8686 157.934 80.4157 156.683 82.1603C155.4 83.8719 153.82 86.1432 153.161 87.1636C152.503 88.184 151.878 89.1057 151.746 89.2044C151.285 89.5665 148.783 93.1544 148.783 93.4836C148.783 93.6482 148.652 93.8128 148.52 93.8128C148.388 93.8128 147.829 94.504 147.269 95.3599C146.743 96.1828 146.183 97.0386 145.986 97.2361C145.196 98.0919 143.583 100.297 143.023 101.285C142.661 101.877 142.266 102.371 142.167 102.371C142.036 102.371 141.805 102.667 141.706 103.062C141.575 103.424 139.271 106.782 136.538 110.502C133.839 114.221 131.535 117.48 131.436 117.776C131.305 118.039 130.976 118.533 130.712 118.862C130.416 119.159 129.823 119.949 129.363 120.64C128.902 121.298 128.342 122.022 128.145 122.286C127.914 122.516 127.717 122.878 127.717 123.076C127.717 123.273 127.585 123.438 127.453 123.438C127.289 123.438 126.993 123.767 126.828 124.162C126.631 124.59 125.083 126.795 123.405 129.099C121.693 131.404 119.29 134.794 118.006 136.604C116.756 138.448 115.439 140.258 115.143 140.587C114.846 140.949 114.023 142.102 113.332 143.122C112.641 144.142 111.983 145.031 111.851 145.097C111.686 145.163 111.588 145.426 111.588 145.689C111.588 145.953 111.456 146.15 111.324 146.15C111.16 146.15 110.732 146.71 110.337 147.368C109.975 148.059 108.658 149.936 107.473 151.582C101.515 159.646 98.4539 164.09 98.421 164.551C98.421 165.077 99.3426 167.052 101.811 171.99C104.642 177.586 105.004 178.409 105.004 178.738C105.004 179.627 106.091 178.869 107.21 177.224C107.901 176.203 108.658 175.183 108.888 174.952C109.086 174.689 109.283 174.36 109.283 174.162C109.283 173.965 109.415 173.8 109.547 173.8C109.678 173.8 110.765 172.352 111.95 170.607C113.102 168.863 114.221 167.283 114.386 167.085C114.583 166.888 115.274 165.9 115.966 164.913C117.183 163.102 118.731 160.996 119.652 159.877C119.916 159.58 120.146 159.218 120.146 159.119C120.146 158.922 123.471 153.984 123.8 153.721C124.162 153.425 127.717 148.487 127.717 148.29C127.717 148.191 128.013 147.763 128.408 147.368C128.77 146.973 129.659 145.755 130.383 144.669C131.601 142.826 133.609 139.896 134.531 138.645C136.802 135.617 145.196 123.701 146.216 122.088C146.512 121.627 146.973 121.035 147.203 120.772C148.026 119.949 150.429 116.558 150.429 116.229C150.429 116.064 150.561 115.867 150.726 115.801C150.857 115.735 151.68 114.649 152.503 113.398C153.326 112.114 154.281 110.732 154.643 110.271C156.058 108.559 160.633 102.009 160.633 101.746C160.633 101.581 160.765 101.384 160.897 101.318C161.16 101.219 165.242 95.5903 166.69 93.319C167.052 92.7924 167.447 92.1999 167.612 92.0024C167.743 91.8378 168.566 90.7186 169.422 89.5336C170.278 88.3486 171.068 87.3282 171.167 87.2294C171.266 87.1307 171.924 86.1761 172.648 85.0899C173.339 84.0036 175.117 81.4361 176.598 79.4282L179.231 75.7415L182.622 75.7086C184.465 75.7086 185.979 75.8403 185.979 75.9719C185.979 76.2024 183.938 79.1649 183.017 80.2182C182.852 80.4486 182.688 80.7119 182.688 80.7778C182.688 80.8765 180.68 83.7074 178.211 87.0978C175.775 90.4553 173.603 93.5494 173.405 94.0103C173.208 94.4382 172.911 94.8003 172.747 94.8003C172.615 94.8003 172.483 95.0307 172.483 95.294C172.483 95.5574 172.385 95.7878 172.22 95.7878C172.088 95.7878 171.726 96.2815 171.397 96.8411C171.068 97.4336 170.344 98.454 169.784 99.0794C169.225 99.7049 168.402 100.824 167.908 101.548C167.447 102.272 166.986 102.931 166.888 103.029C166.756 103.128 166.196 103.918 165.571 104.84C162.74 109.053 157.375 116.624 156.683 117.414C156.519 117.644 156.354 117.941 156.354 118.138C156.354 118.303 156.256 118.5 156.124 118.566C155.663 118.764 152.733 122.714 152.404 123.569C152.24 124.03 151.976 124.425 151.845 124.425C151.68 124.425 151.285 124.952 150.956 125.577C150.594 126.203 150.199 126.729 150.034 126.729C149.903 126.729 149.771 126.861 149.771 127.059C149.771 127.454 146.874 131.469 146.446 131.601C146.282 131.667 146.15 131.864 146.15 132.029C146.15 132.227 145.36 133.412 144.406 134.728C143.451 136.045 141.97 138.119 141.114 139.402C140.258 140.653 138.744 142.826 137.756 144.175C136.736 145.525 135.748 146.94 135.518 147.269C135.321 147.599 134.267 149.047 133.247 150.495C132.193 151.911 131.338 153.162 131.338 153.227C131.338 153.326 131.173 153.589 131.008 153.82C130.284 154.676 120.607 168.237 119.751 169.587C119.257 170.377 118.632 171.299 118.368 171.661C118.072 172.023 117.414 172.912 116.854 173.636C116.328 174.36 115.768 175.084 115.603 175.282C115.472 175.446 114.55 176.796 113.53 178.244C112.542 179.692 111.028 181.865 110.172 183.083C109.316 184.301 108.625 185.42 108.625 185.617C108.625 185.782 108.987 186.638 109.415 187.527C109.843 188.382 110.765 190.292 111.489 191.74C112.18 193.188 112.806 194.439 112.904 194.538C113.036 194.637 113.892 196.315 114.879 198.257C115.834 200.232 116.756 201.878 116.887 201.944C117.085 202.109 118.796 199.772 120.607 196.875C121.43 195.558 123.273 193.024 123.767 192.563C123.866 192.464 124.096 192.135 124.261 191.839C125.314 189.995 127.453 187.23 129.033 185.617C130.021 184.63 131.074 183.379 131.338 182.819C131.601 182.293 131.996 181.667 132.226 181.437C132.457 181.207 132.885 180.581 133.214 180.054C133.51 179.495 133.905 179.067 134.037 179.067C134.168 179.067 134.3 178.902 134.3 178.705C134.3 178.409 137.691 173.603 138.217 173.142C138.382 173.01 140.093 170.542 141.542 168.336C142.727 166.526 144.702 163.728 145.031 163.399C145.228 163.168 146.15 161.917 147.072 160.568C149.277 157.474 152.602 152.701 153.063 152.075C153.227 151.812 155.103 149.212 157.177 146.315C161.522 140.291 164.123 136.473 165.472 134.07C165.966 133.148 166.723 131.963 167.151 131.437C168.533 129.692 173.537 122.615 173.734 122.121C173.833 121.858 174.195 121.331 174.557 120.969C174.886 120.607 175.479 119.784 175.874 119.159C176.236 118.533 176.664 117.941 176.763 117.842C176.861 117.743 178.112 115.999 179.561 113.958C180.976 111.884 182.457 109.975 182.852 109.679C183.247 109.382 183.84 108.658 184.202 108.132C184.531 107.572 186.901 104.247 189.468 100.725C192.036 97.2032 194.34 93.8457 194.636 93.319C194.9 92.7594 195.459 92.0024 195.821 91.6074C196.216 91.2124 196.513 90.7515 196.513 90.5869C196.513 90.4224 196.743 90.0603 197.039 89.8299C197.336 89.5994 198.06 88.6449 198.652 87.7232C199.771 86.0444 202.866 81.6665 206.947 76.0707C208.165 74.359 209.745 72.1536 210.436 71.1332C212.082 68.7303 212.741 67.8086 213.136 67.3478C213.827 66.6236 216.921 61.8178 216.921 61.5215C216.921 61.3569 202.438 61.2253 180.713 61.2253H144.504L143.385 62.7724Z" fill="white"/>
<path d="M183.017 115.077C181.7 117.283 178.047 122.253 177.685 122.385C177.553 122.45 177.421 122.648 177.421 122.845C177.421 123.01 177.224 123.339 177.026 123.603C176.796 123.833 175.94 125.018 175.117 126.236C174.294 127.421 172.78 129.593 171.76 131.042C170.706 132.457 169.85 133.741 169.85 133.84C169.85 133.905 169.554 134.3 169.192 134.695C168.567 135.387 168.534 135.88 168.534 153.59V171.727L166.065 175.15C164.715 177.026 163.497 178.705 163.366 178.903C163.201 179.067 162.905 179.627 162.642 180.12C162.181 181.009 159.152 184.301 157.671 185.486C156.782 186.21 154.149 187.823 152.569 188.646C150.528 189.699 144.834 190.917 141.871 190.917C140.192 190.917 134.728 190.127 131.107 189.37C130.581 189.238 130.186 189.535 129.396 190.621C128.836 191.411 128.244 192.234 128.046 192.464C127.882 192.695 127.717 192.991 127.717 193.188C127.717 193.353 127.585 193.55 127.421 193.616C127.289 193.649 126.071 195.262 124.755 197.171C123.438 199.08 121.924 201.154 121.397 201.813C120.903 202.471 120.475 203.162 120.475 203.327C120.475 204.281 134.136 206.717 139.435 206.717C142.431 206.717 147.665 206.059 150.265 205.335C154.149 204.281 154.281 204.248 157.507 202.734C158.79 202.175 160.272 201.319 160.864 200.924C161.424 200.496 162.049 200.134 162.214 200.134C162.411 200.134 162.609 200.035 162.675 199.87C162.74 199.739 163.432 199.113 164.255 198.488C166.987 196.414 170.904 192.563 172.089 190.851C172.385 190.423 172.879 189.831 173.175 189.502C173.471 189.173 173.998 188.415 174.327 187.79C174.656 187.165 175.051 186.638 175.183 186.638C175.347 186.638 175.446 186.473 175.446 186.309C175.446 186.111 175.611 185.782 175.775 185.552C175.973 185.321 176.664 184.4 177.355 183.511C178.014 182.589 178.672 181.832 178.837 181.766C178.968 181.7 179.067 181.503 179.067 181.338C179.067 181.075 180.91 178.376 185.881 171.529C187.099 169.818 188.382 167.974 188.745 167.415C189.074 166.855 189.436 166.328 189.567 166.23C189.699 166.131 190.423 165.143 191.18 163.991C191.937 162.872 192.826 161.654 193.155 161.325C193.616 160.798 196.282 156.848 197.336 155.104C197.533 154.808 197.731 154.478 197.83 154.38C198.455 153.787 203.491 146.776 205.697 143.353C206.421 142.266 207.31 141.048 207.672 140.653C208.067 140.258 208.363 139.83 208.363 139.732C208.363 139.633 209.548 137.921 210.996 135.946C212.445 133.971 213.63 132.26 213.63 132.194C213.63 132.095 213.992 131.634 214.452 131.14C214.913 130.647 215.736 129.462 216.263 128.54C216.79 127.618 217.481 126.565 217.81 126.17C218.139 125.775 218.633 125.15 218.896 124.722C219.16 124.327 220.048 123.076 220.871 121.99C221.694 120.87 223.077 118.994 223.932 117.743L225.512 115.538H216.658C208.626 115.538 207.77 115.604 207.31 116.098C207.046 116.427 206.157 117.645 205.335 118.83C204.512 120.015 202.997 122.154 201.977 123.603C200.957 125.051 199.936 126.499 199.706 126.828C198.488 128.672 196.381 131.503 196.118 131.601C195.986 131.667 195.855 131.898 195.855 132.128C195.855 132.358 195.558 132.819 195.196 133.148C194.834 133.478 194.538 133.873 194.538 134.037C194.538 134.268 186.967 144.9 185.98 146.052C185.815 146.282 185.65 146.611 185.65 146.809C185.65 146.973 185.42 147.138 185.157 147.138C184.729 147.138 184.663 145.031 184.663 130.186C184.663 120.87 184.564 113.234 184.432 113.234C184.268 113.234 183.642 114.09 183.017 115.077Z" fill="white"/>
</svg>
