<svg width="36" height="24" viewBox="0 0 36 24" fill="none" xmlns="http://www.w3.org/2000/svg">
<path d="M17.5125 0.427538C17.115 0.513788 16.8825 0.663788 16.7138 0.937538C16.6725 1.00879 16.6238 1.07629 16.6125 1.08754C16.6013 1.09879 16.5075 1.23379 16.4063 1.38754C16.3013 1.54129 16.2113 1.67629 16.2 1.68754C16.1888 1.69879 15.9975 1.98379 15.7688 2.32504C15.5438 2.66254 15.3188 2.98129 15.2738 3.03379C15.2288 3.08254 15.1313 3.23254 15.0525 3.36379C14.9775 3.49129 14.8988 3.60004 14.8838 3.60004C14.865 3.60004 14.85 3.62254 14.85 3.65254C14.85 3.67879 14.8238 3.72379 14.7938 3.75004C14.7638 3.77629 14.7375 3.81004 14.7375 3.82879C14.7375 3.87754 16.785 3.87004 17.1188 3.82129C17.2725 3.79879 17.4 3.76504 17.4 3.75004C17.4 3.73504 17.4375 3.71254 17.4863 3.69754C17.5875 3.67129 17.8763 3.39754 17.9063 3.29629C17.9213 3.25879 17.9475 3.22504 17.9663 3.22504C17.985 3.22504 18 3.20254 18 3.17629C18 3.15004 18.0413 3.08629 18.0938 3.03004C18.1463 2.97379 18.1875 2.91379 18.1875 2.89129C18.1875 2.87254 18.2025 2.85004 18.2175 2.84254C18.2325 2.83504 18.3338 2.69629 18.4388 2.53129C18.5438 2.36629 18.6563 2.20129 18.6863 2.16754C18.72 2.13379 18.735 2.09629 18.7238 2.08504C18.7088 2.07379 18.525 2.06254 18.3113 2.06254C17.925 2.06254 17.79 2.01004 18.1388 1.99504C18.4125 1.98379 18.525 1.95379 18.7388 1.84879C18.9413 1.75129 19.005 1.68754 19.2863 1.29379C19.4738 1.03129 19.875 0.416288 19.875 0.393788C19.875 0.352538 17.7113 0.386288 17.5125 0.427538ZM18.18 1.11379C18.1875 1.16254 18.1763 1.20004 18.1538 1.20004C18.1313 1.20004 18.1125 1.22254 18.1125 1.25254C18.1125 1.27879 18.0413 1.38004 17.955 1.47379C17.7938 1.64254 17.55 1.74004 17.475 1.66504C17.4525 1.64254 17.5238 1.50004 17.6363 1.32004L17.8313 1.01254L18 1.02004C18.1425 1.03129 18.1688 1.04254 18.18 1.11379ZM17.1975 2.49379C17.2238 2.55754 17.0138 2.92504 16.8863 3.04504C16.8338 3.09379 16.7325 3.13129 16.6125 3.14254C16.4213 3.16129 16.38 3.12754 16.4738 3.03004C16.53 2.96629 16.7625 2.62879 16.7625 2.60629C16.7625 2.59504 16.7925 2.55379 16.8263 2.51254C16.905 2.41879 17.1638 2.40754 17.1975 2.49379Z" fill="white"/>
<path d="M20.7675 0.431271C20.3925 0.513771 20.2275 0.618771 20.01 0.915021C19.9013 1.06127 19.7738 1.25252 19.725 1.33877C19.6763 1.42877 19.6238 1.50002 19.605 1.50002C19.59 1.50002 19.575 1.52627 19.575 1.55627C19.575 1.58627 19.5375 1.64627 19.4925 1.69502C19.4438 1.74377 19.3275 1.90127 19.23 2.05127C19.1325 2.19752 18.96 2.45252 18.8438 2.61377C18.7313 2.77502 18.6188 2.93252 18.6 2.96252C18.5813 2.99252 18.5063 3.10877 18.4313 3.22127C18.36 3.33002 18.3 3.43502 18.3 3.45377C18.3 3.47252 18.285 3.48752 18.27 3.48752C18.2438 3.48752 18.0525 3.76127 18.03 3.83627C18.0225 3.85502 18.4913 3.86627 19.0688 3.86627C20.0738 3.86252 20.7 3.81752 20.7 3.74627C20.7 3.72752 20.7225 3.71252 20.7525 3.71252C20.8388 3.71252 21.0488 3.49127 21.2888 3.15002C21.6075 2.70002 21.93 2.22752 22.0725 2.00627C22.1963 1.81877 22.4738 1.41752 22.9313 0.761271C23.0663 0.570021 23.175 0.408771 23.175 0.393771C23.175 0.352521 20.9813 0.386271 20.7675 0.431271ZM21.3525 1.18127C21.42 1.23002 21.4163 1.24127 21.285 1.42502C21.21 1.52627 21.15 1.62002 21.15 1.63127C21.15 1.64252 21.1088 1.69877 21.0563 1.75127C21.0075 1.80752 20.9475 1.90127 20.9213 1.95752C20.8988 2.01377 20.865 2.06252 20.8463 2.06252C20.8275 2.06252 20.8125 2.08127 20.8125 2.10002C20.8125 2.12252 20.6963 2.30252 20.55 2.50502C20.4075 2.70377 20.2688 2.89877 20.2425 2.93627C20.1863 3.01127 19.9238 3.06002 19.845 3.00752C19.8038 2.98127 19.8525 2.88752 20.0475 2.60252C20.19 2.40002 20.3775 2.11877 20.4713 1.97627C20.5613 1.83752 20.6513 1.72502 20.67 1.72502C20.685 1.72502 20.7 1.69877 20.7 1.66877C20.7 1.63877 20.715 1.61252 20.73 1.61252C20.7488 1.61252 20.8088 1.52627 20.865 1.42502C21 1.17377 21.2063 1.07252 21.3525 1.18127Z" fill="white"/>
<path d="M24.1688 0.423747C23.895 0.476247 23.5988 0.633747 23.4788 0.787497C23.4225 0.858747 23.2575 1.095 23.1188 1.3125C22.9763 1.53 22.8413 1.725 22.8188 1.75125C22.7588 1.8075 22.2713 2.52 22.2 2.65125C22.0725 2.88375 21.705 3.37125 21.615 3.43125C21.5588 3.465 21.4575 3.5025 21.3863 3.50625C21.2588 3.52125 21.2138 3.55875 21.0938 3.7575L21.0338 3.8625H21.48C22.335 3.8625 22.6125 3.7575 22.9425 3.31875C23.0475 3.18 23.7225 2.145 23.745 2.0925C23.76 2.055 23.79 2.025 23.8125 2.025C23.8313 2.025 23.85 2.0025 23.8538 1.97625C23.8538 1.95375 23.9588 1.78875 24.09 1.6125C24.3038 1.32 24.3338 1.29375 24.465 1.2825C24.5438 1.275 24.6338 1.27875 24.6638 1.29375C24.7163 1.3125 24.7163 1.32 24.6675 1.38C24.6338 1.41375 24.6 1.4775 24.585 1.51875C24.5738 1.56 24.525 1.635 24.4763 1.6875C24.4275 1.74 24.3563 1.84125 24.315 1.9125C24.2775 1.98375 24.225 2.0625 24.2025 2.085C24.18 2.11125 24.105 2.22 24.0338 2.3325C23.9663 2.44125 23.895 2.535 23.88 2.5425C23.8613 2.55 23.85 2.5725 23.85 2.595C23.85 2.61375 23.8275 2.655 23.805 2.68125C23.73 2.76375 23.025 3.81375 23.025 3.84375C23.025 3.8775 23.5725 3.8625 23.7788 3.825C24.1763 3.75 24.4088 3.58125 24.6525 3.195C24.7163 3.09 24.8363 2.90625 24.9225 2.78625C25.1513 2.45625 25.4963 1.95375 25.6388 1.74375C25.7063 1.63875 25.7813 1.5375 25.8 1.51125C25.8225 1.485 25.8375 1.45125 25.8375 1.42875C25.8375 1.41 25.8488 1.3875 25.8675 1.38C25.8825 1.3725 25.9613 1.2675 26.0438 1.14375C26.1263 1.02 26.205 0.911247 26.2238 0.907497C26.2388 0.899997 26.25 0.869997 26.25 0.843747C26.25 0.817497 26.2613 0.787497 26.28 0.779997C26.31 0.764997 26.55 0.427497 26.55 0.397497C26.55 0.359997 24.3675 0.382497 24.1688 0.423747Z" fill="white"/>
<path d="M27.5438 0.412538C27.5025 0.431288 27.4275 0.446288 27.3788 0.446288C27.2513 0.450038 26.9213 0.615038 26.8275 0.720038C26.7825 0.765038 26.6925 0.888788 26.625 0.993788C26.5538 1.09504 26.4863 1.18504 26.4675 1.19254C26.4525 1.20004 26.4375 1.23004 26.4375 1.26004C26.4375 1.29004 26.4225 1.31254 26.4 1.31254C26.3813 1.31254 26.3625 1.33129 26.3625 1.35004C26.3625 1.37254 26.2988 1.47754 26.22 1.58629C26.1375 1.69504 25.9163 2.01754 25.725 2.30629C25.53 2.59504 25.365 2.83879 25.3538 2.85004C25.3425 2.86129 25.3163 2.89504 25.2938 2.93254C25.275 2.96629 25.125 3.18379 24.9638 3.42004L24.6713 3.84379L24.9075 3.85504C25.2488 3.87379 25.6725 3.79879 25.8525 3.68629C26.04 3.57004 26.085 3.52129 26.25 3.28129C26.3213 3.17629 26.3963 3.07504 26.4188 3.04879C26.5238 2.92504 26.55 2.88754 26.55 2.86879C26.55 2.85754 26.6175 2.75629 26.7 2.64379C26.7825 2.53129 26.85 2.42254 26.85 2.40004C26.85 2.38129 26.865 2.36254 26.8838 2.36254C26.9025 2.36254 26.9438 2.30629 26.9775 2.23879C27.045 2.10379 27.12 1.98004 27.15 1.95004C27.2138 1.88629 27.4875 1.49629 27.4875 1.47004C27.4875 1.45129 27.5213 1.40629 27.5625 1.36879C27.63 1.30879 27.7125 1.29754 28.1738 1.29379C28.7063 1.28629 28.8038 1.26754 29.04 1.11379C29.235 0.990038 29.775 0.472538 29.775 0.412538C29.775 0.367538 27.6488 0.367538 27.5438 0.412538Z" fill="white"/>
<path d="M11.0063 4.62004C10.7813 4.63504 10.5525 4.65379 10.5 4.66129C10.3163 4.69504 9.69376 4.88254 9.66001 4.91629C9.63751 4.93504 9.59626 4.95004 9.56251 4.95004C9.49501 4.95004 8.93626 5.23129 8.84626 5.31004C8.81626 5.34004 8.77126 5.36254 8.75251 5.36254C8.65501 5.36254 7.88626 6.10129 7.70626 6.36754C7.37626 6.84754 7.17376 7.30879 7.01626 7.93129C6.94876 8.19379 6.92251 9.18379 6.97126 9.52504C7.08751 10.3163 7.21501 10.7288 7.60876 11.5538C7.71376 11.775 7.80001 11.9738 7.80001 11.9963C7.80001 12.0188 7.81501 12.0375 7.83751 12.0375C7.85626 12.0375 7.88251 12.0788 7.89751 12.1313C7.90876 12.1838 7.93501 12.225 7.95376 12.225C7.97251 12.225 7.98751 12.2475 7.98751 12.2738C7.98751 12.3488 8.13376 12.4725 8.16751 12.4275C8.27251 12.3075 8.40001 12.1125 8.40001 12.0788C8.40001 12.0563 8.41126 12.0375 8.43001 12.0375C8.44501 12.0338 8.55376 11.895 8.67376 11.7263C8.79376 11.5575 8.98501 11.2913 9.09376 11.1375C9.24376 10.9275 9.28501 10.845 9.25876 10.8C9.24001 10.77 9.19126 10.6913 9.15001 10.6313C9.03751 10.455 8.88751 10.1213 8.88751 10.0538C8.88751 10.02 8.87251 9.97504 8.85376 9.95629C8.83501 9.93379 8.79376 9.79504 8.75626 9.64504C8.70376 9.43129 8.69626 9.26254 8.70751 8.82004C8.72251 8.34004 8.74126 8.23129 8.83126 7.96879C8.88751 7.80379 8.96251 7.61629 8.99626 7.55629C9.25126 7.08004 9.70876 6.66004 10.1063 6.52129C10.1888 6.49504 10.2788 6.45379 10.3088 6.43129C10.3688 6.38629 12.9 6.35254 12.9 6.39754C12.9 6.41254 12.8775 6.45379 12.8475 6.48379C12.8213 6.51754 12.7013 6.68629 12.5813 6.86254C12.0975 7.57504 12.0263 7.66879 11.9963 7.68004C11.9775 7.68754 11.9625 7.71754 11.9625 7.74754C11.9625 7.77754 11.9475 7.80004 11.9325 7.80004C11.9175 7.80004 11.8613 7.86754 11.8125 7.95004C11.76 8.03254 11.7075 8.10004 11.6925 8.10004C11.6738 8.10004 11.6625 8.12254 11.6625 8.15254C11.6625 8.18254 11.6513 8.21254 11.6363 8.22004C11.6175 8.22379 11.5388 8.33254 11.4563 8.45629C11.295 8.69254 10.6013 9.66379 10.5375 9.73879C10.5188 9.76504 10.5 9.80254 10.5 9.82504C10.5 9.84379 10.485 9.86254 10.4663 9.86254C10.4475 9.86254 10.4213 9.89254 10.41 9.92629C10.3988 9.96379 10.35 10.035 10.3013 10.0875C10.2563 10.14 10.1738 10.2488 10.125 10.3313C10.0725 10.4138 10.0125 10.5075 9.98626 10.5375C9.90751 10.635 9.29251 11.5013 9.08626 11.805C8.97751 11.9625 8.87251 12.1125 8.85001 12.1388C8.83126 12.165 8.81251 12.2025 8.81251 12.225C8.81251 12.2438 8.79751 12.2625 8.77876 12.2625C8.76001 12.2625 8.73376 12.2925 8.72251 12.3263C8.71126 12.3638 8.66251 12.435 8.61376 12.4875C8.56876 12.54 8.48251 12.6413 8.42626 12.7163L8.32126 12.855L8.42626 13.0725C8.48251 13.1963 8.53876 13.3013 8.55001 13.3125C8.56126 13.3238 8.60251 13.4063 8.64376 13.5C8.68126 13.5938 8.73376 13.695 8.75626 13.725C8.78251 13.755 8.83501 13.8563 8.87251 13.9463C8.91376 14.04 9.00751 14.2388 9.08251 14.3925L9.21751 14.67L9.54751 14.2275C9.72751 13.9838 9.96376 13.65 10.0763 13.485C10.1888 13.3163 10.3013 13.155 10.3238 13.125C10.35 13.0913 10.4288 12.9788 10.5 12.87C10.5713 12.765 10.6425 12.675 10.6613 12.675C10.6763 12.675 10.6875 12.6488 10.6875 12.6188C10.6875 12.5888 10.7025 12.5625 10.7175 12.5625C10.7325 12.5625 10.7963 12.4838 10.86 12.3863C10.92 12.2925 10.9875 12.195 11.0063 12.1725C11.0288 12.15 11.1113 12.03 11.1938 11.9063C11.34 11.6888 12.0375 10.7138 12.1125 10.6238C12.135 10.5975 12.15 10.5675 12.15 10.5563C12.15 10.5413 12.1725 10.5113 12.1988 10.485C12.2213 10.455 12.27 10.395 12.3 10.35C12.33 10.305 12.39 10.2225 12.4313 10.17C12.4725 10.1175 12.54 10.02 12.5813 9.95254C12.6863 9.78379 12.93 9.43879 13.3388 8.88004C13.53 8.61379 13.71 8.35879 13.7325 8.30629C13.755 8.25379 13.7888 8.21254 13.8075 8.21254C13.8225 8.21254 13.8375 8.18629 13.8375 8.15629C13.8375 8.12629 13.8525 8.10004 13.8713 8.10004C13.89 8.10004 13.9163 8.07004 13.9275 8.03254C13.9425 7.99879 14.0175 7.89379 14.1 7.80004C14.1825 7.70629 14.25 7.60879 14.25 7.58254C14.25 7.56004 14.2613 7.53754 14.28 7.53754C14.295 7.53754 14.3475 7.47004 14.4 7.38754C14.4525 7.30504 14.505 7.23754 14.52 7.23754C14.5388 7.23754 14.55 7.21879 14.55 7.19629C14.55 7.17754 14.64 7.03879 14.7488 6.88879C14.8575 6.73879 14.985 6.55504 15.0375 6.48004L15.1313 6.33754H20.1413H25.1513L25.41 5.97754C25.5525 5.78254 25.6875 5.59129 25.7063 5.55754C25.7288 5.52754 25.8825 5.30629 26.055 5.07004C26.2238 4.83379 26.3625 4.63129 26.3625 4.61629C26.3625 4.58254 11.5425 4.58629 11.0063 4.62004Z" fill="white"/>
<path d="M16.335 7.15127C16.2638 7.25252 16.0425 7.56002 15.8475 7.83752C15.6525 8.11502 15.4725 8.36252 15.45 8.38877C15.4313 8.41502 15.4125 8.45252 15.4125 8.47502C15.4125 8.49377 15.4013 8.51252 15.3863 8.51252C15.3675 8.51252 15.315 8.58002 15.2625 8.66252C15.2138 8.74502 15.1575 8.81252 15.1425 8.81252C15.1275 8.81252 15.1125 8.83877 15.1125 8.86877C15.1125 8.89877 15.0938 8.92502 15.075 8.92502C15.0525 8.92502 15.0188 8.96627 15 9.02252C14.9625 9.12002 14.7413 9.42002 14.6925 9.44252C14.6738 9.45002 14.6625 9.47252 14.6625 9.49127C14.6625 9.51377 14.5688 9.65627 14.4563 9.80627C14.3438 9.96002 14.25 10.1025 14.25 10.125C14.25 10.1438 14.235 10.1625 14.22 10.1625C14.19 10.1625 13.8863 10.5863 13.6125 11.0063C13.5338 11.13 13.4363 11.265 13.395 11.3063C13.3575 11.3475 13.2938 11.4338 13.2525 11.4938C13.215 11.5575 13.0463 11.7975 12.8813 12.0263C12.7163 12.2588 12.5063 12.5588 12.4125 12.6975C12.3188 12.8325 12.225 12.9638 12.2025 12.9863C12.1838 13.0125 12.105 13.125 12.03 13.2375C11.9588 13.35 11.82 13.545 11.7263 13.6688C11.6325 13.7925 11.5238 13.935 11.4825 13.9875C11.445 14.04 11.3813 14.1413 11.34 14.2125C11.3025 14.2838 11.2613 14.3513 11.25 14.3625C11.2013 14.4075 10.5075 15.3675 10.4438 15.4763C10.4025 15.5438 10.3575 15.6 10.3425 15.6C10.3275 15.6 10.3125 15.6188 10.3125 15.6375C10.3125 15.66 10.2375 15.7838 10.1438 15.915C10.05 16.05 9.97501 16.17 9.97501 16.1813C9.97501 16.1925 10.0275 16.3125 10.0875 16.4438C10.1513 16.575 10.2 16.695 10.2 16.71C10.2 16.725 10.26 16.8638 10.335 17.0213C10.41 17.1788 10.5413 17.4563 10.6313 17.6438C10.7175 17.8275 10.8038 18.015 10.8188 18.0563C10.8413 18.1238 10.8563 18.1163 10.9725 17.9813C11.04 17.8988 11.1075 17.8013 11.1225 17.7638C11.1338 17.73 11.16 17.7 11.1788 17.7C11.1975 17.7 11.2125 17.6738 11.2125 17.6438C11.2125 17.6138 11.2275 17.5875 11.2463 17.5875C11.265 17.5875 11.2988 17.535 11.325 17.475C11.3513 17.4113 11.385 17.3625 11.4038 17.3625C11.4225 17.3625 11.4375 17.34 11.4375 17.31C11.4375 17.28 11.4638 17.25 11.4938 17.235C11.5238 17.2238 11.55 17.1938 11.55 17.1675C11.55 17.1413 11.5913 17.0738 11.6438 17.0175C11.6963 16.9613 11.7375 16.905 11.7375 16.8938C11.7375 16.8825 11.7563 16.8525 11.775 16.8263C11.8388 16.7513 12.5325 15.78 12.6938 15.5438C12.7763 15.42 12.855 15.3113 12.8738 15.3075C12.8888 15.3 12.9 15.2775 12.9 15.2588C12.9 15.2363 12.915 15.2025 12.9375 15.1763C13.125 14.9513 13.2413 14.7938 13.3688 14.6025C13.4513 14.4825 13.5263 14.3738 13.5375 14.3625C13.5488 14.3513 13.6238 14.2425 13.7063 14.1188C13.8413 13.9088 14.6138 12.825 14.7 12.7238C14.7188 12.6975 14.7375 12.66 14.7375 12.6375C14.7375 12.6188 14.7525 12.6 14.7713 12.6C14.79 12.6 14.9025 12.4463 15.0225 12.2625C15.1425 12.075 15.255 11.925 15.27 11.925C15.285 11.925 15.3 11.91 15.3 11.8875C15.3 11.8688 15.4725 11.61 15.6863 11.3175C15.9 11.0213 16.14 10.68 16.2225 10.5563C16.3688 10.3313 16.4063 10.275 16.485 10.1888C16.5638 10.095 16.8375 9.71627 16.8375 9.69752C16.8375 9.68627 16.8638 9.64502 16.8938 9.61127C16.9425 9.55127 17.0438 9.40877 17.4938 8.76377L17.5913 8.62502H17.9663C18.1688 8.62502 18.3375 8.63627 18.3375 8.65127C18.3375 8.69252 18.1725 8.92502 18.1425 8.92502C18.1238 8.92502 18.1125 8.94377 18.1125 8.96252C18.1125 8.98502 17.9925 9.16127 17.85 9.36002C17.7038 9.55502 17.5238 9.81377 17.4488 9.93002C17.3738 10.0463 17.3025 10.1513 17.2875 10.1625C17.235 10.2038 16.95 10.6125 16.95 10.65C16.95 10.6688 16.935 10.6875 16.92 10.6875C16.905 10.6875 16.8413 10.7663 16.7775 10.8638C16.7175 10.9575 16.6538 11.055 16.6313 11.0775C16.5413 11.175 16.3575 11.4263 16.2938 11.5388C16.2525 11.6063 16.2075 11.6625 16.1963 11.6625C16.1813 11.6625 16.155 11.6963 16.1438 11.7413C16.1288 11.7825 15.8663 12.165 15.555 12.5888C15.2475 13.0125 14.985 13.3838 14.9738 13.4175C14.9588 13.4475 14.9213 13.5038 14.8913 13.5413C14.8575 13.575 14.79 13.665 14.7375 13.7438C14.685 13.8188 14.6213 13.9013 14.5988 13.9313C14.5725 13.9575 14.55 13.9988 14.55 14.0213C14.55 14.0438 14.535 14.0625 14.52 14.0625C14.5013 14.0625 14.4675 14.1 14.4488 14.145C14.4263 14.1938 14.25 14.445 14.0588 14.7075C13.8638 14.97 13.59 15.3563 13.4438 15.5625C13.3013 15.7725 13.1513 15.9788 13.1175 16.0163C13.0838 16.0575 12.99 16.1888 12.9113 16.305C12.8325 16.4213 12.7575 16.5225 12.7425 16.53C12.7238 16.5375 12.7125 16.5675 12.7125 16.5975C12.7125 16.6275 12.6975 16.65 12.6825 16.65C12.6638 16.65 12.615 16.7138 12.57 16.7888C12.5288 16.8675 12.3788 17.0813 12.2438 17.2688C11.565 18.1875 11.2163 18.6938 11.2125 18.7463C11.2125 18.8063 11.3175 19.0313 11.5988 19.5938C11.9213 20.2313 11.9625 20.325 11.9625 20.3625C11.9625 20.4638 12.0863 20.3775 12.2138 20.19C12.2925 20.0738 12.3788 19.9575 12.405 19.9313C12.4275 19.9013 12.45 19.8638 12.45 19.8413C12.45 19.8188 12.465 19.8 12.48 19.8C12.495 19.8 12.6188 19.635 12.7538 19.4363C12.885 19.2375 13.0125 19.0575 13.0313 19.035C13.0538 19.0125 13.1325 18.9 13.2113 18.7875C13.35 18.5813 13.5263 18.3413 13.6313 18.2138C13.6613 18.18 13.6875 18.1388 13.6875 18.1275C13.6875 18.105 14.0663 17.5425 14.1038 17.5125C14.145 17.4788 14.55 16.9163 14.55 16.8938C14.55 16.8825 14.5838 16.8338 14.6288 16.7888C14.67 16.7438 14.7713 16.605 14.8538 16.4813C14.9925 16.2713 15.2213 15.9375 15.3263 15.795C15.585 15.45 16.5413 14.0925 16.6575 13.9088C16.6913 13.8563 16.7438 13.7888 16.77 13.7588C16.8638 13.665 17.1375 13.2788 17.1375 13.2413C17.1375 13.2225 17.1525 13.2 17.1713 13.1925C17.1863 13.185 17.28 13.0613 17.3738 12.9188C17.4675 12.7725 17.5763 12.615 17.6175 12.5625C17.7788 12.3675 18.3 11.6213 18.3 11.5913C18.3 11.5725 18.315 11.55 18.33 11.5425C18.36 11.5313 18.825 10.89 18.99 10.6313C19.0313 10.5713 19.0763 10.5038 19.095 10.4813C19.11 10.4625 19.2038 10.335 19.3013 10.2C19.3988 10.065 19.4888 9.94877 19.5 9.93752C19.5113 9.92627 19.5863 9.81752 19.6688 9.69377C19.7475 9.57002 19.95 9.27752 20.1188 9.04877L20.4188 8.62877L20.805 8.62502C21.015 8.62502 21.1875 8.64002 21.1875 8.65502C21.1875 8.68127 20.955 9.01877 20.85 9.13877C20.8313 9.16502 20.8125 9.19502 20.8125 9.20252C20.8125 9.21377 20.5838 9.53627 20.3025 9.92252C20.025 10.305 19.7775 10.6575 19.755 10.71C19.7325 10.7588 19.6988 10.8 19.68 10.8C19.665 10.8 19.65 10.8263 19.65 10.8563C19.65 10.8863 19.6388 10.9125 19.62 10.9125C19.605 10.9125 19.5638 10.9688 19.5263 11.0325C19.4888 11.1 19.4063 11.2163 19.3425 11.2875C19.2788 11.3588 19.185 11.4863 19.1288 11.5688C19.0763 11.6513 19.0238 11.7263 19.0125 11.7375C18.9975 11.7488 18.9338 11.8388 18.8625 11.9438C18.54 12.4238 17.9288 13.2863 17.85 13.3763C17.8313 13.4025 17.8125 13.4363 17.8125 13.4588C17.8125 13.4775 17.8013 13.5 17.7863 13.5075C17.7338 13.53 17.4 13.98 17.3625 14.0775C17.3438 14.13 17.3138 14.175 17.2988 14.175C17.28 14.175 17.235 14.235 17.1975 14.3063C17.1563 14.3775 17.1113 14.4375 17.0925 14.4375C17.0775 14.4375 17.0625 14.4525 17.0625 14.475C17.0625 14.52 16.7325 14.9775 16.6838 14.9925C16.665 15 16.65 15.0225 16.65 15.0413C16.65 15.0638 16.56 15.1988 16.4513 15.3488C16.3425 15.4988 16.1738 15.735 16.0763 15.8813C15.9788 16.0238 15.8063 16.2713 15.6938 16.425C15.5775 16.5788 15.465 16.74 15.4388 16.7775C15.4163 16.815 15.2963 16.98 15.18 17.145C15.06 17.3063 14.9625 17.4488 14.9625 17.4563C14.9625 17.4675 14.9438 17.4975 14.925 17.5238C14.8425 17.6213 13.74 19.1663 13.6425 19.32C13.5863 19.41 13.515 19.515 13.485 19.5563C13.4513 19.5975 13.3763 19.6988 13.3125 19.7813C13.2525 19.8638 13.1888 19.9463 13.17 19.9688C13.155 19.9875 13.05 20.1413 12.9338 20.3063C12.8213 20.4713 12.6488 20.7188 12.5513 20.8575C12.4538 20.9963 12.375 21.1238 12.375 21.1463C12.375 21.165 12.4163 21.2625 12.465 21.3638C12.5138 21.4613 12.6188 21.6788 12.7013 21.8438C12.78 22.0088 12.8513 22.1513 12.8625 22.1625C12.8775 22.1738 12.975 22.365 13.0875 22.5863C13.1963 22.8113 13.3013 22.9988 13.3163 23.0063C13.3388 23.025 13.5338 22.7588 13.74 22.4288C13.8338 22.2788 14.0438 21.99 14.1 21.9375C14.1113 21.9263 14.1375 21.8888 14.1563 21.855C14.2763 21.645 14.52 21.33 14.7 21.1463C14.8125 21.0338 14.9325 20.8913 14.9625 20.8275C14.9925 20.7675 15.0375 20.6963 15.0638 20.67C15.09 20.6438 15.1388 20.5725 15.1763 20.5125C15.21 20.4488 15.255 20.4 15.27 20.4C15.285 20.4 15.3 20.3813 15.3 20.3588C15.3 20.325 15.6863 19.7775 15.7463 19.725C15.765 19.71 15.96 19.4288 16.125 19.1775C16.26 18.9713 16.485 18.6525 16.5225 18.615C16.545 18.5888 16.65 18.4463 16.755 18.2925C17.0063 17.94 17.385 17.3963 17.4375 17.325C17.4563 17.295 17.67 16.9988 17.9063 16.6688C18.4013 15.9825 18.6975 15.5475 18.8513 15.2738C18.9075 15.1688 18.9938 15.0338 19.0425 14.9738C19.2 14.775 19.77 13.9688 19.7925 13.9125C19.8038 13.8825 19.845 13.8225 19.8863 13.7813C19.9238 13.74 19.9913 13.6463 20.0363 13.575C20.0775 13.5038 20.1263 13.4363 20.1375 13.425C20.1488 13.4138 20.2913 13.215 20.4563 12.9825C20.6175 12.7463 20.7863 12.5288 20.8313 12.495C20.8763 12.4613 20.9438 12.3788 20.985 12.3188C21.0225 12.255 21.2925 11.8763 21.585 11.475C21.8775 11.0738 22.14 10.6913 22.1738 10.6313C22.2038 10.5675 22.2675 10.4813 22.3088 10.4363C22.3538 10.3913 22.3875 10.3388 22.3875 10.32C22.3875 10.3013 22.4138 10.26 22.4475 10.2338C22.4813 10.2075 22.5638 10.0988 22.6313 9.99377C22.7588 9.80252 23.1113 9.30377 23.5763 8.66627C23.715 8.47127 23.895 8.22002 23.9738 8.10377C24.1613 7.83002 24.2363 7.72502 24.2813 7.67252C24.36 7.59002 24.7125 7.04252 24.7125 7.00877C24.7125 6.99002 23.0625 6.97502 20.5875 6.97502H16.4625L16.335 7.15127Z" fill="white"/>
<path d="M20.85 13.11C20.7 13.3613 20.2838 13.9275 20.2425 13.9425C20.2275 13.95 20.2125 13.9725 20.2125 13.995C20.2125 14.0138 20.19 14.0513 20.1675 14.0813C20.1413 14.1075 20.0438 14.2425 19.95 14.3813C19.8563 14.5163 19.6838 14.7638 19.5675 14.9288C19.4475 15.09 19.35 15.2363 19.35 15.2475C19.35 15.255 19.3163 15.3 19.275 15.345C19.2038 15.4238 19.2 15.48 19.2 17.4975V19.5638L18.9188 19.9538C18.765 20.1675 18.6263 20.3588 18.6113 20.3813C18.5925 20.4 18.5588 20.4638 18.5288 20.52C18.4763 20.6213 18.1313 20.9963 17.9625 21.1313C17.8613 21.2138 17.5613 21.3975 17.3813 21.4913C17.1488 21.6113 16.5 21.75 16.1625 21.75C15.9713 21.75 15.3488 21.66 14.9363 21.5738C14.8763 21.5588 14.8313 21.5925 14.7413 21.7163C14.6775 21.8063 14.61 21.9 14.5875 21.9263C14.5688 21.9525 14.55 21.9863 14.55 22.0088C14.55 22.0275 14.535 22.05 14.5163 22.0575C14.5013 22.0613 14.3625 22.245 14.2125 22.4625C14.0625 22.68 13.89 22.9163 13.83 22.9913C13.7738 23.0663 13.725 23.145 13.725 23.1638C13.725 23.2725 15.2813 23.55 15.885 23.55C16.2263 23.55 16.8225 23.475 17.1188 23.3925C17.5613 23.2725 17.5763 23.2688 17.9438 23.0963C18.09 23.0325 18.2588 22.935 18.3263 22.89C18.39 22.8413 18.4613 22.8 18.48 22.8C18.5025 22.8 18.525 22.7888 18.5325 22.77C18.54 22.755 18.6188 22.6838 18.7125 22.6125C19.0238 22.3763 19.47 21.9375 19.605 21.7425C19.6388 21.6938 19.695 21.6263 19.7288 21.5888C19.7625 21.5513 19.8225 21.465 19.86 21.3938C19.8975 21.3225 19.9425 21.2625 19.9575 21.2625C19.9763 21.2625 19.9875 21.2438 19.9875 21.225C19.9875 21.2025 20.0063 21.165 20.025 21.1388C20.0475 21.1125 20.1263 21.0075 20.205 20.9063C20.28 20.8013 20.355 20.715 20.3738 20.7075C20.3888 20.7 20.4 20.6775 20.4 20.6588C20.4 20.6288 20.61 20.3213 21.1763 19.5413C21.315 19.3463 21.4613 19.1363 21.5025 19.0725C21.54 19.0088 21.5813 18.9488 21.5963 18.9375C21.6113 18.9263 21.6938 18.8138 21.78 18.6825C21.8663 18.555 21.9675 18.4163 22.005 18.3788C22.0575 18.3188 22.3613 17.8688 22.4813 17.67C22.5038 17.6363 22.5263 17.5988 22.5375 17.5875C22.6088 17.52 23.1825 16.7213 23.4338 16.3313C23.5163 16.2075 23.6175 16.0688 23.6588 16.0238C23.7038 15.9788 23.7375 15.93 23.7375 15.9188C23.7375 15.9075 23.8725 15.7125 24.0375 15.4875C24.2025 15.2625 24.3375 15.0675 24.3375 15.06C24.3375 15.0488 24.3788 14.9963 24.4313 14.94C24.4838 14.8838 24.5775 14.7488 24.6375 14.6438C24.6975 14.5388 24.7763 14.4188 24.8138 14.3738C24.8513 14.3288 24.9075 14.2575 24.9375 14.2088C24.9675 14.1638 25.0688 14.0213 25.1625 13.8975C25.2563 13.77 25.4138 13.5563 25.5113 13.4138L25.6913 13.1625H24.6825C23.7675 13.1625 23.67 13.17 23.6175 13.2263C23.5875 13.2638 23.4863 13.4025 23.3925 13.5375C23.2988 13.6725 23.1263 13.9163 23.01 14.0813C22.8938 14.2463 22.7775 14.4113 22.7513 14.4488C22.6125 14.6588 22.3725 14.9813 22.3425 14.9925C22.3275 15 22.3125 15.0263 22.3125 15.0525C22.3125 15.0788 22.2788 15.1313 22.2375 15.1688C22.1963 15.2063 22.1625 15.2513 22.1625 15.27C22.1625 15.2963 21.3 16.5075 21.1875 16.6388C21.1688 16.665 21.15 16.7025 21.15 16.725C21.15 16.7438 21.1238 16.7625 21.0938 16.7625C21.045 16.7625 21.0375 16.5225 21.0375 14.8313C21.0375 13.77 21.0263 12.9 21.0113 12.9C20.9925 12.9 20.9213 12.9975 20.85 13.11Z" fill="white"/>
</svg>
