<svg width="44" height="30" viewBox="0 0 44 30" fill="none" xmlns="http://www.w3.org/2000/svg">
<path d="M21.4042 0.52252C20.9183 0.627937 20.6342 0.81127 20.4279 1.14585C20.3775 1.23294 20.3179 1.31544 20.3042 1.32919C20.2904 1.34294 20.1758 1.50794 20.0521 1.69585C19.9238 1.88377 19.8138 2.04877 19.8 2.06252C19.7863 2.07627 19.5525 2.4246 19.2729 2.84169C18.9979 3.25419 18.7229 3.64377 18.6679 3.70794C18.6129 3.76752 18.4938 3.95085 18.3975 4.11127C18.3058 4.2671 18.2096 4.40002 18.1913 4.40002C18.1683 4.40002 18.15 4.42752 18.15 4.46419C18.15 4.49627 18.1179 4.55127 18.0813 4.58335C18.0446 4.61544 18.0125 4.65669 18.0125 4.6796C18.0125 4.73919 20.515 4.73002 20.9229 4.67044C21.1108 4.64294 21.2667 4.60169 21.2667 4.58335C21.2667 4.56502 21.3125 4.53752 21.3721 4.51919C21.4958 4.4871 21.8488 4.15252 21.8854 4.02877C21.9038 3.98294 21.9358 3.94169 21.9588 3.94169C21.9817 3.94169 22 3.91419 22 3.8821C22 3.85002 22.0504 3.7721 22.1146 3.70335C22.1788 3.6346 22.2292 3.56127 22.2292 3.53377C22.2292 3.51085 22.2475 3.48335 22.2658 3.47419C22.2842 3.46502 22.4079 3.29544 22.5363 3.09377C22.6646 2.8921 22.8021 2.69044 22.8388 2.64919C22.88 2.60794 22.8983 2.5621 22.8846 2.54835C22.8663 2.5346 22.6417 2.52085 22.3804 2.52085C21.9083 2.52085 21.7433 2.45669 22.1696 2.43835C22.5042 2.4246 22.6417 2.38794 22.9029 2.2596C23.1504 2.14044 23.2283 2.06252 23.5721 1.58127C23.8013 1.26044 24.2917 0.50877 24.2917 0.48127C24.2917 0.430853 21.6471 0.472103 21.4042 0.52252ZM22.22 1.36127C22.2292 1.42085 22.2154 1.46669 22.1879 1.46669C22.1604 1.46669 22.1375 1.49419 22.1375 1.53085C22.1375 1.56294 22.0504 1.68669 21.945 1.80127C21.7479 2.00752 21.45 2.12669 21.3583 2.03502C21.3308 2.00752 21.4179 1.83335 21.5554 1.61335L21.7938 1.23752L22 1.24669C22.1742 1.26044 22.2063 1.27419 22.22 1.36127ZM21.0192 3.04794C21.0513 3.12585 20.7946 3.57502 20.6388 3.72169C20.5746 3.78127 20.4508 3.8271 20.3042 3.84085C20.0704 3.86377 20.02 3.82252 20.1346 3.70335C20.2033 3.62544 20.4875 3.21294 20.4875 3.18544C20.4875 3.17169 20.5242 3.12127 20.5654 3.07085C20.6617 2.95627 20.9779 2.94252 21.0192 3.04794Z" fill="#D7D7D7"/>
<path d="M25.3825 0.527008C24.9242 0.627842 24.7225 0.756175 24.4567 1.11826C24.3238 1.29701 24.1679 1.53076 24.1083 1.63617C24.0488 1.74617 23.9846 1.83326 23.9617 1.83326C23.9433 1.83326 23.925 1.86534 23.925 1.90201C23.925 1.93867 23.8792 2.01201 23.8242 2.07159C23.7646 2.13117 23.6225 2.32367 23.5033 2.50701C23.3842 2.68576 23.1733 2.99743 23.0313 3.19451C22.8938 3.39159 22.7563 3.58409 22.7333 3.62076C22.7104 3.65743 22.6188 3.79951 22.5271 3.93701C22.44 4.06993 22.3667 4.19826 22.3667 4.22118C22.3667 4.24409 22.3483 4.26243 22.33 4.26243C22.2979 4.26243 22.0642 4.59701 22.0367 4.68868C22.0275 4.71159 22.6004 4.72534 23.3063 4.72534C24.5346 4.72076 25.3 4.66576 25.3 4.57868C25.3 4.55576 25.3275 4.53743 25.3642 4.53743C25.4696 4.53743 25.7263 4.26701 26.0196 3.84993C26.4092 3.29993 26.8033 2.72243 26.9775 2.45201C27.1288 2.22284 27.4679 1.73242 28.0271 0.930342C28.1921 0.696592 28.325 0.499508 28.325 0.481175C28.325 0.430758 25.6438 0.472008 25.3825 0.527008ZM26.0975 1.44367C26.18 1.50326 26.1754 1.51701 26.015 1.74159C25.9233 1.86534 25.85 1.97992 25.85 1.99367C25.85 2.00742 25.7996 2.07617 25.7354 2.14034C25.6758 2.20909 25.6025 2.32367 25.5704 2.39242C25.5429 2.46117 25.5017 2.52076 25.4788 2.52076C25.4558 2.52076 25.4375 2.54367 25.4375 2.56659C25.4375 2.59409 25.2954 2.81409 25.1167 3.06159C24.9425 3.30451 24.7729 3.54284 24.7408 3.58868C24.6721 3.68034 24.3513 3.73993 24.255 3.67576C24.2046 3.64368 24.2642 3.52909 24.5025 3.18076C24.6767 2.93326 24.9058 2.58951 25.0204 2.41534C25.1304 2.24576 25.2404 2.10826 25.2633 2.10826C25.2817 2.10826 25.3 2.07617 25.3 2.03951C25.3 2.00284 25.3183 1.97076 25.3367 1.97076C25.3596 1.97076 25.4329 1.86534 25.5017 1.74159C25.6667 1.43451 25.9188 1.31076 26.0975 1.44367Z" fill="#D7D7D7"/>
<path d="M29.5396 0.517846C29.205 0.582012 28.8429 0.774512 28.6962 0.962429C28.6275 1.04951 28.4258 1.33826 28.2562 1.6041C28.0821 1.86993 27.9171 2.10826 27.8896 2.14035C27.8162 2.2091 27.2204 3.07993 27.1333 3.24035C26.9775 3.52451 26.5283 4.12035 26.4183 4.19368C26.3496 4.23493 26.2258 4.28076 26.1387 4.28535C25.9829 4.30368 25.9279 4.34951 25.7812 4.59243L25.7079 4.72076H26.2533C27.2983 4.72076 27.6375 4.59243 28.0408 4.05618C28.1692 3.8866 28.9942 2.6216 29.0217 2.55743C29.04 2.5116 29.0767 2.47493 29.1042 2.47493C29.1271 2.47493 29.15 2.44743 29.1546 2.41535C29.1546 2.38785 29.2829 2.18618 29.4433 1.97076C29.7046 1.61326 29.7412 1.58118 29.9017 1.56743C29.9979 1.55826 30.1079 1.56285 30.1446 1.58118C30.2087 1.6041 30.2087 1.61326 30.1492 1.6866C30.1079 1.72785 30.0667 1.80576 30.0483 1.85618C30.0346 1.9066 29.975 1.99826 29.9154 2.06243C29.8558 2.1266 29.7687 2.25035 29.7183 2.33743C29.6725 2.42451 29.6083 2.52076 29.5808 2.54826C29.5533 2.58035 29.4617 2.71326 29.3746 2.85076C29.2921 2.98368 29.205 3.09826 29.1867 3.10743C29.1637 3.1166 29.15 3.1441 29.15 3.1716C29.15 3.19451 29.1225 3.24493 29.095 3.27701C29.0033 3.37785 28.1417 4.66118 28.1417 4.69785C28.1417 4.7391 28.8108 4.72076 29.0629 4.67493C29.5487 4.58326 29.8329 4.37701 30.1308 3.90493C30.2087 3.7766 30.3554 3.55201 30.4608 3.40535C30.7404 3.00201 31.1621 2.38785 31.3362 2.13118C31.4187 2.00285 31.5104 1.8791 31.5333 1.84701C31.5608 1.81493 31.5792 1.77368 31.5792 1.74618C31.5792 1.72326 31.5929 1.69576 31.6158 1.6866C31.6342 1.67743 31.7304 1.5491 31.8312 1.39785C31.9321 1.2466 32.0283 1.11368 32.0512 1.1091C32.0696 1.09993 32.0833 1.06326 32.0833 1.03118C32.0833 0.999096 32.0971 0.962429 32.12 0.953262C32.1567 0.934929 32.45 0.522429 32.45 0.485762C32.45 0.439929 29.7825 0.467429 29.5396 0.517846Z" fill="#D7D7D7"/>
<path d="M33.6646 0.5042C33.6142 0.527117 33.5225 0.54545 33.4629 0.54545C33.3071 0.550033 32.9038 0.7517 32.7892 0.880033C32.7342 0.935033 32.6242 1.08628 32.5417 1.21462C32.4546 1.33837 32.3721 1.44837 32.3492 1.45753C32.3308 1.4667 32.3125 1.50337 32.3125 1.54003C32.3125 1.5767 32.2942 1.6042 32.2667 1.6042C32.2438 1.6042 32.2208 1.62712 32.2208 1.65003C32.2208 1.67753 32.1429 1.80587 32.0467 1.93878C31.9458 2.0717 31.6754 2.46587 31.4417 2.81878C31.2033 3.1717 31.0017 3.46962 30.9879 3.48337C30.9742 3.49712 30.9421 3.53837 30.9146 3.5842C30.8917 3.62545 30.7083 3.89128 30.5113 4.18003L30.1538 4.69795L30.4425 4.7117C30.8596 4.73462 31.3775 4.64295 31.5975 4.50545C31.8267 4.36337 31.8817 4.30378 32.0833 4.01045C32.1704 3.88212 32.2621 3.75837 32.2896 3.72628C32.4179 3.57503 32.45 3.5292 32.45 3.50628C32.45 3.49253 32.5325 3.36878 32.6333 3.23128C32.7342 3.09378 32.8167 2.96087 32.8167 2.93337C32.8167 2.91045 32.835 2.88753 32.8579 2.88753C32.8808 2.88753 32.9313 2.81878 32.9725 2.73628C33.055 2.57128 33.1467 2.42003 33.1833 2.38337C33.2613 2.30545 33.5958 1.82878 33.5958 1.7967C33.5958 1.77378 33.6371 1.71878 33.6875 1.67295C33.77 1.59962 33.8708 1.58587 34.4346 1.58128C35.0854 1.57212 35.2046 1.5492 35.4933 1.36128C35.7317 1.21003 36.3917 0.577533 36.3917 0.5042C36.3917 0.4492 33.7929 0.4492 33.6646 0.5042Z" fill="#D7D7D7"/>
<path d="M13.4521 5.6466C13.1771 5.66493 12.8975 5.68785 12.8333 5.69702C12.6087 5.73827 11.8479 5.96743 11.8067 6.00868C11.7792 6.0316 11.7287 6.04993 11.6875 6.04993C11.605 6.04993 10.9221 6.39368 10.8121 6.48993C10.7754 6.5266 10.7204 6.5541 10.6975 6.5541C10.5783 6.5541 9.63875 7.45702 9.41875 7.78243C9.01541 8.3691 8.76791 8.93285 8.57541 9.69368C8.49291 10.0145 8.46083 11.2245 8.52041 11.6416C8.6625 12.6087 8.81833 13.1128 9.29958 14.1212C9.42791 14.3916 9.53333 14.6345 9.53333 14.662C9.53333 14.6895 9.55166 14.7124 9.57916 14.7124C9.60208 14.7124 9.63416 14.7628 9.6525 14.827C9.66625 14.8912 9.69833 14.9416 9.72125 14.9416C9.74416 14.9416 9.7625 14.9691 9.7625 15.0012C9.7625 15.0928 9.94125 15.2441 9.9825 15.1891C10.1108 15.0424 10.2667 14.8041 10.2667 14.7628C10.2667 14.7353 10.2804 14.7124 10.3033 14.7124C10.3217 14.7078 10.4546 14.5383 10.6012 14.332C10.7479 14.1258 10.9817 13.8003 11.1146 13.6124C11.2979 13.3558 11.3483 13.2549 11.3162 13.1999C11.2933 13.1633 11.2337 13.067 11.1833 12.9937C11.0458 12.7783 10.8625 12.3703 10.8625 12.2878C10.8625 12.2466 10.8442 12.1916 10.8212 12.1687C10.7983 12.1412 10.7479 11.9716 10.7021 11.7883C10.6379 11.527 10.6287 11.3208 10.6425 10.7799C10.6608 10.1933 10.6837 10.0603 10.7937 9.73952C10.8625 9.53785 10.9542 9.30868 10.9954 9.23535C11.3071 8.65327 11.8662 8.13993 12.3521 7.97035C12.4529 7.93827 12.5629 7.88785 12.5996 7.86035C12.6729 7.80535 15.7667 7.7641 15.7667 7.8191C15.7667 7.83743 15.7392 7.88785 15.7025 7.92452C15.6704 7.96577 15.5237 8.17202 15.3771 8.38743C14.7858 9.25827 14.6987 9.37285 14.6621 9.3866C14.6392 9.39577 14.6208 9.43243 14.6208 9.4691C14.6208 9.50577 14.6025 9.53327 14.5842 9.53327C14.5658 9.53327 14.4971 9.61577 14.4375 9.7166C14.3733 9.81743 14.3092 9.89993 14.2908 9.89993C14.2679 9.89993 14.2542 9.92743 14.2542 9.9641C14.2542 10.0008 14.2404 10.0374 14.2221 10.0466C14.1992 10.0512 14.1029 10.1841 14.0021 10.3353C13.805 10.6241 12.9571 11.8112 12.8792 11.9028C12.8562 11.9349 12.8333 11.9808 12.8333 12.0083C12.8333 12.0312 12.815 12.0541 12.7921 12.0541C12.7692 12.0541 12.7371 12.0908 12.7233 12.132C12.7096 12.1778 12.65 12.2649 12.5904 12.3291C12.5354 12.3933 12.4346 12.5262 12.375 12.627C12.3108 12.7278 12.2375 12.8424 12.2054 12.8791C12.1092 12.9983 11.3575 14.057 11.1054 14.4283C10.9725 14.6208 10.8442 14.8041 10.8167 14.8362C10.7937 14.8683 10.7708 14.9141 10.7708 14.9416C10.7708 14.9645 10.7525 14.9874 10.7296 14.9874C10.7067 14.9874 10.6746 15.0241 10.6608 15.0653C10.6471 15.1112 10.5875 15.1983 10.5279 15.2624C10.4729 15.3266 10.3675 15.4503 10.2987 15.542L10.1704 15.7116L10.2987 15.9774C10.3675 16.1287 10.4362 16.257 10.45 16.2708C10.4637 16.2845 10.5142 16.3853 10.5646 16.4999C10.6104 16.6145 10.6746 16.7383 10.7021 16.7749C10.7342 16.8116 10.7983 16.9353 10.8442 17.0453C10.8946 17.1599 11.0092 17.4028 11.1008 17.5908L11.2658 17.9299L11.6692 17.3891C11.8892 17.0912 12.1779 16.6833 12.3154 16.4816C12.4529 16.2753 12.5904 16.0783 12.6179 16.0416C12.65 16.0003 12.7462 15.8628 12.8333 15.7299C12.9204 15.6016 13.0075 15.4916 13.0304 15.4916C13.0487 15.4916 13.0625 15.4595 13.0625 15.4228C13.0625 15.3862 13.0808 15.3541 13.0992 15.3541C13.1175 15.3541 13.1954 15.2578 13.2733 15.1387C13.3467 15.0241 13.4292 14.9049 13.4521 14.8774C13.4796 14.8499 13.5804 14.7033 13.6812 14.552C13.86 14.2862 14.7125 13.0945 14.8042 12.9845C14.8317 12.9524 14.85 12.9158 14.85 12.902C14.85 12.8837 14.8775 12.847 14.9096 12.8149C14.9371 12.7783 14.9967 12.7049 15.0333 12.6499C15.07 12.5949 15.1433 12.4941 15.1937 12.4299C15.2442 12.3658 15.3267 12.2466 15.3771 12.1641C15.5054 11.9578 15.8033 11.5362 16.3029 10.8533C16.5367 10.5278 16.7567 10.2162 16.7842 10.152C16.8117 10.0878 16.8529 10.0374 16.8758 10.0374C16.8942 10.0374 16.9125 10.0053 16.9125 9.96868C16.9125 9.93202 16.9308 9.89993 16.9537 9.89993C16.9767 9.89993 17.0087 9.86327 17.0225 9.81743C17.0408 9.77618 17.1325 9.64785 17.2333 9.53327C17.3342 9.41868 17.4167 9.29952 17.4167 9.26743C17.4167 9.23993 17.4304 9.21243 17.4533 9.21243C17.4717 9.21243 17.5358 9.12993 17.6 9.0291C17.6642 8.92827 17.7283 8.84577 17.7467 8.84577C17.7696 8.84577 17.7833 8.82285 17.7833 8.79535C17.7833 8.77243 17.8933 8.60285 18.0262 8.41952C18.1592 8.23618 18.315 8.0116 18.3792 7.91993L18.4937 7.74577H24.6171H30.7404L31.0567 7.30577C31.2308 7.06743 31.3958 6.83368 31.4188 6.79243C31.4463 6.75577 31.6342 6.48535 31.845 6.1966C32.0513 5.90785 32.2208 5.66035 32.2208 5.64202C32.2208 5.60077 14.1075 5.60535 13.4521 5.6466Z" fill="#D7D7D7"/>
<path d="M19.965 8.7404C19.8779 8.86415 19.6075 9.23998 19.3692 9.57915C19.1308 9.91832 18.9108 10.2208 18.8833 10.2529C18.8604 10.285 18.8375 10.3308 18.8375 10.3583C18.8375 10.3812 18.8238 10.4042 18.8054 10.4042C18.7825 10.4042 18.7183 10.4867 18.6542 10.5875C18.5946 10.6883 18.5258 10.7708 18.5075 10.7708C18.4892 10.7708 18.4708 10.8029 18.4708 10.8396C18.4708 10.8762 18.4479 10.9083 18.425 10.9083C18.3975 10.9083 18.3563 10.9587 18.3333 11.0275C18.2875 11.1467 18.0171 11.5133 17.9575 11.5408C17.9346 11.55 17.9208 11.5775 17.9208 11.6004C17.9208 11.6279 17.8063 11.8021 17.6688 11.9854C17.5313 12.1733 17.4167 12.3475 17.4167 12.375C17.4167 12.3979 17.3983 12.4208 17.38 12.4208C17.3433 12.4208 16.9721 12.9387 16.6375 13.4521C16.5413 13.6033 16.4221 13.7683 16.3717 13.8187C16.3258 13.8692 16.2479 13.9746 16.1975 14.0479C16.1517 14.1258 15.9454 14.4192 15.7438 14.6987C15.5421 14.9829 15.2854 15.3496 15.1708 15.5191C15.0563 15.6841 14.9417 15.8446 14.9142 15.8721C14.8913 15.9041 14.795 16.0416 14.7033 16.1791C14.6163 16.3166 14.4467 16.555 14.3321 16.7062C14.2175 16.8575 14.0846 17.0316 14.0342 17.0958C13.9883 17.16 13.9104 17.2837 13.86 17.3708C13.8142 17.4579 13.7638 17.5404 13.75 17.5541C13.6904 17.6091 12.8425 18.7825 12.7646 18.9154C12.7142 18.9979 12.6592 19.0666 12.6408 19.0666C12.6225 19.0666 12.6042 19.0896 12.6042 19.1125C12.6042 19.14 12.5125 19.2912 12.3979 19.4516C12.2833 19.6166 12.1917 19.7633 12.1917 19.7771C12.1917 19.7908 12.2558 19.9375 12.3292 20.0979C12.4071 20.2583 12.4667 20.405 12.4667 20.4233C12.4667 20.4416 12.54 20.6112 12.6317 20.8037C12.7233 20.9962 12.8838 21.3354 12.9938 21.5646C13.0992 21.7891 13.2046 22.0183 13.2229 22.0687C13.2504 22.1512 13.2688 22.1421 13.4108 21.9771C13.4933 21.8762 13.5758 21.7571 13.5942 21.7112C13.6079 21.67 13.64 21.6333 13.6629 21.6333C13.6858 21.6333 13.7042 21.6012 13.7042 21.5646C13.7042 21.5279 13.7225 21.4958 13.7454 21.4958C13.7683 21.4958 13.8096 21.4316 13.8417 21.3583C13.8738 21.2804 13.915 21.2208 13.9379 21.2208C13.9608 21.2208 13.9792 21.1933 13.9792 21.1566C13.9792 21.12 14.0113 21.0833 14.0479 21.065C14.0846 21.0512 14.1167 21.0146 14.1167 20.9825C14.1167 20.9504 14.1671 20.8679 14.2313 20.7991C14.2954 20.7304 14.3458 20.6616 14.3458 20.6479C14.3458 20.6341 14.3688 20.5975 14.3917 20.5654C14.4696 20.4737 15.3175 19.2866 15.5146 18.9979C15.6154 18.8466 15.7117 18.7137 15.7346 18.7091C15.7529 18.7 15.7667 18.6725 15.7667 18.6496C15.7667 18.6221 15.785 18.5808 15.8125 18.5487C16.0417 18.2737 16.1838 18.0812 16.3396 17.8475C16.4404 17.7008 16.5321 17.5679 16.5458 17.5541C16.5596 17.5404 16.6513 17.4075 16.7521 17.2562C16.9171 16.9996 17.8613 15.675 17.9667 15.5512C17.9896 15.5191 18.0125 15.4733 18.0125 15.4458C18.0125 15.4229 18.0308 15.4 18.0538 15.4C18.0767 15.4 18.2142 15.2121 18.3608 14.9875C18.5075 14.7583 18.645 14.575 18.6633 14.575C18.6817 14.575 18.7 14.5567 18.7 14.5292C18.7 14.5062 18.9108 14.19 19.1721 13.8325C19.4333 13.4704 19.7267 13.0533 19.8275 12.9021C20.0063 12.6271 20.0521 12.5583 20.1483 12.4529C20.2446 12.3383 20.5792 11.8754 20.5792 11.8525C20.5792 11.8387 20.6113 11.7883 20.6479 11.7471C20.7075 11.6737 20.8313 11.4996 21.3813 10.7112L21.5004 10.5417H21.9588C22.2063 10.5417 22.4125 10.5554 22.4125 10.5737C22.4125 10.6242 22.2108 10.9083 22.1742 10.9083C22.1513 10.9083 22.1375 10.9312 22.1375 10.9542C22.1375 10.9817 21.9908 11.1971 21.8167 11.44C21.6379 11.6783 21.4179 11.9946 21.3263 12.1367C21.2346 12.2787 21.1475 12.4071 21.1292 12.4208C21.065 12.4712 20.7167 12.9708 20.7167 13.0167C20.7167 13.0396 20.6983 13.0625 20.68 13.0625C20.6617 13.0625 20.5838 13.1587 20.5058 13.2779C20.4325 13.3925 20.3546 13.5117 20.3271 13.5392C20.2171 13.6583 19.9925 13.9654 19.9146 14.1029C19.8642 14.1854 19.8092 14.2542 19.7954 14.2542C19.7771 14.2542 19.745 14.2954 19.7313 14.3504C19.7129 14.4008 19.3921 14.8683 19.0117 15.3862C18.6358 15.9041 18.315 16.3579 18.3013 16.3991C18.2829 16.4358 18.2371 16.5046 18.2004 16.5504C18.1592 16.5916 18.0767 16.7016 18.0125 16.7979C17.9483 16.8896 17.8704 16.9904 17.8429 17.0271C17.8108 17.0591 17.7833 17.1096 17.7833 17.1371C17.7833 17.1646 17.765 17.1875 17.7467 17.1875C17.7238 17.1875 17.6825 17.2333 17.6596 17.2883C17.6321 17.3479 17.4167 17.655 17.1829 17.9758C16.9446 18.2966 16.61 18.7687 16.4313 19.0208C16.2571 19.2775 16.0738 19.5296 16.0325 19.5754C15.9913 19.6258 15.8767 19.7862 15.7804 19.9283C15.6842 20.0704 15.5925 20.1941 15.5742 20.2033C15.5513 20.2125 15.5375 20.2491 15.5375 20.2858C15.5375 20.3225 15.5192 20.35 15.5008 20.35C15.4779 20.35 15.4183 20.4279 15.3633 20.5196C15.3129 20.6158 15.1296 20.8771 14.9646 21.1062C14.135 22.2291 13.7088 22.8479 13.7042 22.9121C13.7042 22.9854 13.8325 23.2604 14.1763 23.9479C14.5704 24.7271 14.6208 24.8416 14.6208 24.8875C14.6208 25.0112 14.7721 24.9058 14.9279 24.6766C15.0242 24.5346 15.1296 24.3925 15.1617 24.3604C15.1892 24.3237 15.2167 24.2779 15.2167 24.2504C15.2167 24.2229 15.235 24.2 15.2533 24.2C15.2717 24.2 15.4229 23.9983 15.5879 23.7554C15.7483 23.5125 15.9042 23.2925 15.9271 23.265C15.9546 23.2375 16.0508 23.1 16.1471 22.9625C16.3167 22.7104 16.5321 22.4171 16.6604 22.2612C16.6971 22.22 16.7292 22.1696 16.7292 22.1558C16.7292 22.1283 17.1921 21.4408 17.2379 21.4041C17.2883 21.3629 17.7833 20.6754 17.7833 20.6479C17.7833 20.6341 17.8246 20.5746 17.8796 20.5196C17.93 20.4646 18.0538 20.295 18.1546 20.1437C18.3242 19.8871 18.6038 19.4791 18.7321 19.305C19.0483 18.8833 20.2171 17.2241 20.3592 16.9996C20.4004 16.9354 20.4646 16.8529 20.4967 16.8162C20.6113 16.7016 20.9458 16.2296 20.9458 16.1837C20.9458 16.1608 20.9642 16.1333 20.9871 16.1241C21.0054 16.115 21.12 15.9637 21.2346 15.7896C21.3492 15.6108 21.4821 15.4183 21.5325 15.3541C21.7296 15.1158 22.3667 14.2037 22.3667 14.1671C22.3667 14.1442 22.385 14.1167 22.4033 14.1075C22.44 14.0937 23.0083 13.31 23.21 12.9937C23.2604 12.9204 23.3154 12.8379 23.3383 12.8104C23.3567 12.7875 23.4713 12.6317 23.5904 12.4667C23.7096 12.3017 23.8196 12.1596 23.8333 12.1458C23.8471 12.1321 23.9388 11.9992 24.0396 11.8479C24.1358 11.6967 24.3833 11.3392 24.5896 11.0596L24.9563 10.5462L25.4283 10.5417C25.685 10.5417 25.8958 10.56 25.8958 10.5783C25.8958 10.6104 25.6117 11.0229 25.4833 11.1696C25.4604 11.2017 25.4375 11.2383 25.4375 11.2475C25.4375 11.2612 25.1579 11.6554 24.8142 12.1275C24.475 12.595 24.1725 13.0258 24.145 13.09C24.1175 13.1496 24.0763 13.2 24.0533 13.2C24.035 13.2 24.0167 13.2321 24.0167 13.2687C24.0167 13.3054 24.0029 13.3375 23.98 13.3375C23.9617 13.3375 23.9113 13.4062 23.8654 13.4842C23.8196 13.5667 23.7188 13.7087 23.6408 13.7958C23.5629 13.8829 23.4483 14.0387 23.3796 14.1396C23.3154 14.2404 23.2513 14.3321 23.2375 14.3458C23.2192 14.3596 23.1413 14.4696 23.0542 14.5979C22.66 15.1846 21.9129 16.2387 21.8167 16.3487C21.7938 16.3808 21.7708 16.4221 21.7708 16.4496C21.7708 16.4725 21.7571 16.5 21.7388 16.5091C21.6746 16.5366 21.2667 17.0866 21.2208 17.2058C21.1979 17.27 21.1613 17.325 21.1429 17.325C21.12 17.325 21.065 17.3983 21.0192 17.4854C20.9688 17.5725 20.9138 17.6458 20.8908 17.6458C20.8725 17.6458 20.8542 17.6641 20.8542 17.6916C20.8542 17.7466 20.4508 18.3058 20.3913 18.3241C20.3683 18.3333 20.35 18.3608 20.35 18.3837C20.35 18.4112 20.24 18.5762 20.1071 18.7596C19.9742 18.9429 19.7679 19.2316 19.6488 19.4104C19.5296 19.5846 19.3188 19.8871 19.1813 20.075C19.0392 20.2629 18.9017 20.46 18.8696 20.5058C18.8421 20.5516 18.6954 20.7533 18.5533 20.955C18.4067 21.1521 18.2875 21.3262 18.2875 21.3354C18.2875 21.3491 18.2646 21.3858 18.2417 21.4179C18.1408 21.5371 16.7933 23.4254 16.6742 23.6133C16.6054 23.7233 16.5183 23.8516 16.4817 23.9021C16.4404 23.9525 16.3488 24.0762 16.2708 24.1771C16.1975 24.2779 16.1196 24.3787 16.0967 24.4062C16.0783 24.4291 15.95 24.6171 15.8079 24.8187C15.6704 25.0204 15.4596 25.3229 15.3404 25.4925C15.2213 25.6621 15.125 25.8179 15.125 25.8454C15.125 25.8683 15.1754 25.9875 15.235 26.1112C15.2946 26.2304 15.4229 26.4962 15.5238 26.6979C15.62 26.8996 15.7071 27.0737 15.7208 27.0875C15.7392 27.1012 15.8583 27.335 15.9958 27.6054C16.1288 27.8804 16.2571 28.1096 16.2754 28.1187C16.3029 28.1416 16.5413 27.8162 16.7933 27.4129C16.9079 27.2296 17.1646 26.8766 17.2333 26.8125C17.2471 26.7987 17.2792 26.7529 17.3021 26.7116C17.4488 26.455 17.7467 26.07 17.9667 25.8454C18.1042 25.7079 18.2508 25.5337 18.2875 25.4558C18.3242 25.3825 18.3792 25.2954 18.4113 25.2633C18.4433 25.2312 18.5029 25.1441 18.5488 25.0708C18.59 24.9929 18.645 24.9333 18.6633 24.9333C18.6817 24.9333 18.7 24.9104 18.7 24.8829C18.7 24.8416 19.1721 24.1725 19.2454 24.1083C19.2683 24.09 19.5067 23.7462 19.7083 23.4391C19.8733 23.1871 20.1483 22.7975 20.1942 22.7516C20.2217 22.7196 20.35 22.5454 20.4783 22.3575C20.7854 21.9266 21.2483 21.2621 21.3125 21.175C21.3354 21.1383 21.5967 20.7762 21.8854 20.3729C22.4904 19.5341 22.8525 19.0025 23.0404 18.6679C23.1092 18.5396 23.2146 18.3746 23.2742 18.3012C23.4667 18.0583 24.1633 17.0729 24.1908 17.0041C24.2046 16.9675 24.255 16.8941 24.3054 16.8437C24.3513 16.7933 24.4338 16.6787 24.4888 16.5916C24.5392 16.5046 24.5988 16.4221 24.6125 16.4083C24.6263 16.3946 24.8004 16.1516 25.0021 15.8675C25.1992 15.5787 25.4054 15.3129 25.4604 15.2716C25.5154 15.2304 25.5979 15.1296 25.6483 15.0562C25.6942 14.9783 26.0242 14.5154 26.3817 14.025C26.7392 13.5346 27.06 13.0671 27.1013 12.9937C27.1379 12.9158 27.2158 12.8104 27.2663 12.7554C27.3213 12.7004 27.3625 12.6362 27.3625 12.6133C27.3625 12.5904 27.3946 12.54 27.4358 12.5079C27.4771 12.4758 27.5779 12.3429 27.6604 12.2146C27.8163 11.9808 28.2471 11.3712 28.8154 10.5921C28.985 10.3537 29.205 10.0467 29.3013 9.90457C29.5304 9.56998 29.6221 9.44165 29.6771 9.37748C29.7733 9.27665 30.2042 8.60748 30.2042 8.56623C30.2042 8.54332 28.1875 8.52498 25.1625 8.52498H20.1208L19.965 8.7404Z" fill="#D7D7D7"/>
<path d="M25.4833 16.0234C25.3 16.3305 24.7913 17.0226 24.7408 17.0409C24.7225 17.0501 24.7042 17.0776 24.7042 17.1051C24.7042 17.128 24.6767 17.1739 24.6492 17.2105C24.6171 17.2426 24.4979 17.4076 24.3833 17.5772C24.2688 17.7422 24.0579 18.0447 23.9158 18.2464C23.7692 18.4434 23.65 18.6222 23.65 18.6359C23.65 18.6451 23.6088 18.7001 23.5583 18.7551C23.4713 18.8514 23.4667 18.9201 23.4667 21.3859V23.9114L23.1229 24.388C22.935 24.6493 22.7654 24.883 22.7471 24.9105C22.7242 24.9334 22.6829 25.0114 22.6463 25.0801C22.5821 25.2039 22.1604 25.6622 21.9542 25.8272C21.8304 25.928 21.4638 26.1526 21.2438 26.2672C20.9596 26.4139 20.1667 26.5834 19.7542 26.5834C19.5204 26.5834 18.7596 26.4734 18.2554 26.368C18.1821 26.3497 18.1271 26.3909 18.0171 26.5422C17.9392 26.6522 17.8567 26.7668 17.8292 26.7989C17.8063 26.8309 17.7833 26.8722 17.7833 26.8997C17.7833 26.9226 17.765 26.9501 17.7421 26.9593C17.7238 26.9639 17.5542 27.1884 17.3708 27.4543C17.1875 27.7201 16.9767 28.0089 16.9033 28.1005C16.8346 28.1922 16.775 28.2884 16.775 28.3114C16.775 28.4443 18.6771 28.7834 19.415 28.7834C19.8321 28.7834 20.5608 28.6918 20.9229 28.5909C21.4638 28.4443 21.4821 28.4397 21.9313 28.2289C22.11 28.1509 22.3163 28.0318 22.3988 27.9768C22.4767 27.9172 22.5638 27.8668 22.5867 27.8668C22.6142 27.8668 22.6417 27.853 22.6508 27.8301C22.66 27.8118 22.7563 27.7247 22.8708 27.6376C23.2513 27.3489 23.7967 26.8126 23.9617 26.5743C24.0029 26.5147 24.0717 26.4322 24.1129 26.3864C24.1542 26.3405 24.2275 26.2351 24.2733 26.148C24.3192 26.0609 24.3742 25.9876 24.3925 25.9876C24.4154 25.9876 24.4292 25.9647 24.4292 25.9418C24.4292 25.9143 24.4521 25.8684 24.475 25.8364C24.5025 25.8043 24.5988 25.6759 24.695 25.5522C24.7867 25.4239 24.8783 25.3184 24.9013 25.3093C24.9196 25.3001 24.9333 25.2726 24.9333 25.2497C24.9333 25.213 25.19 24.8372 25.8821 23.8839C26.0517 23.6455 26.2304 23.3889 26.2808 23.3109C26.3267 23.233 26.3771 23.1597 26.3954 23.1459C26.4138 23.1322 26.5146 22.9947 26.62 22.8343C26.7254 22.6784 26.8492 22.5089 26.895 22.463C26.9592 22.3897 27.3304 21.8397 27.4771 21.5968C27.5046 21.5555 27.5321 21.5097 27.5458 21.4959C27.6329 21.4134 28.3342 20.4372 28.6413 19.9605C28.7421 19.8093 28.8658 19.6397 28.9163 19.5847C28.9713 19.5297 29.0125 19.4701 29.0125 19.4564C29.0125 19.4426 29.1775 19.2043 29.3792 18.9293C29.5808 18.6543 29.7458 18.4159 29.7458 18.4068C29.7458 18.393 29.7963 18.3289 29.8604 18.2601C29.9246 18.1914 30.0392 18.0264 30.1125 17.898C30.1858 17.7697 30.2821 17.623 30.3279 17.568C30.3738 17.513 30.4425 17.4259 30.4792 17.3664C30.5158 17.3114 30.6396 17.1372 30.7542 16.9859C30.8688 16.8301 31.0613 16.5689 31.1804 16.3947L31.4004 16.0876H30.1675C29.0492 16.0876 28.93 16.0968 28.8658 16.1655C28.8292 16.2114 28.7054 16.3809 28.5908 16.5459C28.4763 16.7109 28.2654 17.0089 28.1233 17.2105C27.9813 17.4122 27.8392 17.6139 27.8071 17.6597C27.6375 17.9164 27.3442 18.3105 27.3075 18.3243C27.2892 18.3334 27.2708 18.3655 27.2708 18.3976C27.2708 18.4297 27.2296 18.4939 27.1792 18.5397C27.1288 18.5855 27.0875 18.6405 27.0875 18.6634C27.0875 18.6955 26.0333 20.1759 25.8958 20.3364C25.8729 20.3684 25.85 20.4143 25.85 20.4418C25.85 20.4647 25.8179 20.4876 25.7813 20.4876C25.7217 20.4876 25.7125 20.1943 25.7125 18.1272C25.7125 16.8301 25.6988 15.7668 25.6804 15.7668C25.6575 15.7668 25.5704 15.8859 25.4833 16.0234Z" fill="#D7D7D7"/>
</svg>
